/* XPM */
static char *xpm_krec_record[] = {
/* columns rows colors chars-per-pixel */
"22 22 223 2",
"   c #9D0000",
".  c #A00000",
"X  c #A20000",
"o  c #A40000",
"O  c #AD0000",
"+  c #AF0000",
"@  c #B10000",
"#  c #B20000",
"$  c #BF0000",
"%  c #B71414",
"&  c #C10000",
"*  c #D60000",
"=  c #DD0505",
"-  c #D01212",
";  c #E10000",
":  c #E40000",
">  c #E60000",
",  c #E40202",
"<  c #E90000",
"1  c #EA0000",
"2  c #E80303",
"3  c #EC0000",
"4  c #EF0101",
"5  c #ED0707",
"6  c #EE0E0E",
"7  c #F40000",
"8  c #F50000",
"9  c #F70000",
"0  c #F50505",
"q  c #F90000",
"w  c #FA0000",
"e  c #FC0101",
"r  c #FD0101",
"t  c #FE0303",
"y  c #FE0505",
"u  c #F00E0E",
"i  c #FF0909",
"p  c #FF0A0A",
"a  c #FF0D0D",
"s  c #E01B1B",
"d  c #E21B1B",
"f  c #FF1010",
"g  c #FF1313",
"h  c #FA1616",
"j  c #FD1414",
"k  c #FF1616",
"l  c #FF1818",
"z  c #FF1919",
"x  c #FF1C1C",
"c  c #FF1D1D",
"v  c #FC1F1F",
"b  c #C12020",
"n  c #D12828",
"m  c #C63A3A",
"M  c #C73A3A",
"N  c #F72121",
"B  c #F92121",
"V  c #FF2020",
"C  c #FF2424",
"Z  c #FF2727",
"A  c #FF2828",
"S  c #FF2C2C",
"D  c #FF2E2E",
"F  c #EB3D3D",
"G  c #ED3D3D",
"H  c #FE3131",
"J  c #FF3232",
"K  c #FE3333",
"L  c #FF3434",
"P  c #FF3535",
"I  c #F23D3D",
"U  c #F43D3D",
"Y  c #FF3838",
"T  c #FF3939",
"R  c #FF3A3A",
"E  c #F83D3D",
"W  c #FA3D3D",
"Q  c #FF3C3C",
"!  c #FF3D3D",
"~  c #FD3E3E",
"^  c #FE3F3F",
"/  c #FF3F3F",
"(  c #D64040",
")  c #D74040",
"_  c #D54646",
"`  c #D64646",
"'  c #D24B4B",
"]  c #D95C5C",
"[  c #DA5C5C",
"{  c #E74848",
"}  c #E14D4D",
"|  c #E34D4D",
" . c #E84848",
".. c #EC4848",
"X. c #EE4848",
"o. c #FF4141",
"O. c #FF4343",
"+. c #FF4444",
"@. c #FF4545",
"#. c #FF4747",
"$. c #F24848",
"%. c #F34848",
"&. c #F74848",
"*. c #F84848",
"=. c #FB4848",
"-. c #FC4848",
";. c #FE4949",
":. c #FF4949",
">. c #FE4A4A",
",. c #FF4B4B",
"<. c #FF4C4C",
"1. c #FF4D4D",
"2. c #FF4E4E",
"3. c #FF4F4F",
"4. c #E85252",
"5. c #E95252",
"6. c #EC5252",
"7. c #ED5252",
"8. c #E35D5D",
"9. c #E45D5D",
"0. c #E75D5D",
"q. c #E85D5D",
"w. c #EB5D5D",
"e. c #EC5D5D",
"r. c #EE5D5D",
"t. c #EF5D5D",
"y. c #F05252",
"u. c #F15252",
"i. c #F45252",
"p. c #F55252",
"a. c #F75252",
"s. c #F85252",
"d. c #FA5252",
"f. c #FB5252",
"g. c #FF5050",
"h. c #FF5151",
"j. c #FC5252",
"k. c #FD5252",
"l. c #FF5252",
"z. c #FF5353",
"x. c #FF5454",
"c. c #FF5555",
"v. c #FF5757",
"b. c #F15D5D",
"n. c #F35D5D",
"m. c #F45D5D",
"M. c #F55D5D",
"N. c #FF5858",
"B. c #FF5959",
"V. c #FF5A5A",
"C. c #FF5B5B",
"Z. c #FF5C5C",
"A. c #FF5D5D",
"S. c #FF5E5E",
"D. c #D96464",
"F. c #E36767",
"G. c #E46767",
"H. c #E66767",
"J. c #E76767",
"K. c #E96767",
"L. c #EB6767",
"P. c #EC6767",
"I. c #ED6767",
"U. c #EE6767",
"Y. c #EF6767",
"T. c #FF6161",
"R. c #FF6262",
"E. c #FF6464",
"W. c #FF6565",
"Q. c #FF6666",
"!. c #FF6868",
"~. c #FF6969",
"^. c #FF6A6A",
"/. c #FF6B6B",
"(. c #FF6E6E",
"). c #E27272",
"_. c #E37272",
"`. c #E57272",
"'. c #E67272",
"]. c #E77272",
"[. c #E87272",
"{. c #E97272",
"}. c #EA7272",
"|. c #E37C7C",
" X c #E47C7C",
".X c #E57C7C",
"XX c #FF7373",
"oX c #FF7676",
"OX c #FF7777",
"+X c #FF7878",
"@X c #FF7979",
"#X c #FF7A7A",
"$X c #FF7C7C",
"%X c #FF7D7D",
"&X c #FF8282",
"*X c #FF8383",
"=X c #FF8585",
"-X c #FF8686",
";X c #FF8888",
":X c #FF8989",
">X c #FF8A8A",
",X c #FF8C8C",
"<X c #FF8E8E",
"1X c #FF8F8F",
"2X c #FF9191",
"3X c #FF9494",
"4X c #FF9595",
"5X c #FF9898",
"6X c #FF9999",
"7X c #FF9A9A",
"8X c #FF9C9C",
"9X c #FF9F9F",
"0X c #FFA1A1",
"qX c #FFA2A2",
"wX c #FFA3A3",
"eX c #FFAFAF",
"rX c #FFB0B0",
"tX c #FFB2B2",
"yX c #FFC3C3",
"uX c #FFD2D2",
"iX c #FFD7D7",
"pX c #FFDCDC",
"aX c None",
/* pixels */
"aXaXaXaXaXaXaXaXaXaXaXaXaXaXaXaXaXaXaXaXaXaX",
"aXaXaXaXaXaXaXaXaXaXaXaXaXaXaXaXaXaXaXaXaXaX",
"aXaXaXaXaXaXo % m ' D.D.' M % X aXaXaXaXaXaX",
"aXaXaXaX. b ] |. X.X.X.X.X X|.[ b   aXaXaXaX",
"aXaXaX+ _ ).`.'.[.{.}.}.{.[.].`._.` O aXaXaX",
"aXaX# ( F.H.K.L.I.U.Y.Y.U.I.P.K.J.G.) @ aXaX",
"aXaXn 8.0.w.r.b.n.m.M.M.M.n.b.t.e.q.9.n aXaX",
"aX& } 4.6.y.i.a.d.f.j.k.j.d.s.p.u.7.5.| $ aX",
"aX- { ..$.&.=.;.<.3.h.h.g.1.>.-.*.%.X. .- aX",
"aXs F I E ~ O.:.3.l.x.c.z.g.,.+.^ W U G d aX",
"aX: 6 N H ! @.1.z.N.V.C.B.c.3.#./ K B u > aX",
"aX3 7 r a C T :.z.C.T.R.Z.x.,.Q Z f t 9 4 aX",
"aX1 w i z A P o.,.z.v.v.x.2.+.T S c a e 2 aX",
"aX, y g C L O.h.Z.E.~.^.Q.S.x.#.Y A l p = aX",
"aX; j x D / 3.S./.oX$X%X+X(.R.z.O.J V v * aX",
"aXaX0 D P #.B.^.@X-X<X1X:X%X(.S.<.R Q 5 aXaX",
"aXaX8 k <.l.T.XX=X3X9X0X5X:X+XW.V.A.h < aXaX",
"aXaXaXp A A.#X;X2X9XeXtXwX6X4X,X!.x q aXaXaX",
"aXaXaXaXaXR B.*XqXyXuXpXiXrX:X3.Z aXaXaXaXaX",
"aXaXaXaXaXaXaXT.OX>X8X7X&X^.3.aXaXaXaXaXaXaX",
"aXaXaXaXaXaXaXaXaXaXaXaXaXaXaXaXaXaXaXaXaXaX",
"aXaXaXaXaXaXaXaXaXaXaXaXaXaXaXaXaXaXaXaXaXaX"
};
