/* XPM */
static const char * xpm_krec_record[] = {
"22 22 17 1",
" 	c None",
".	c #030202",
"+	c #400C0C",
"@	c #6B1111",
"#	c #7E1919",
"$	c #BB0404",
"%	c #380C0C",
"&	c #C62828",
"*	c #DB0303",
"=	c #2E0606",
"-	c #BE1F1F",
";	c #270A0A",
">	c #C21515",
",	c #CA0404",
"'	c #160505",
")	c #AA0E0E",
"!	c #E80202",
"                      ",
"       .........      ",
"     ..';%%%;'....    ",
"    .'%#&&&&-#%'...   ",
"   .'@&&>$,$,>-@'...  ",
"  ..#&>$$$,$,,,>@'... ",
"  .%&)$$$$,,,,,,>%... ",
" .'#&$$$,,,,,,*,*@'...",
" .;&>$$$$,,*,****)=...",
" .;&$$,,,,,**,**!>=...",
" .+&,$,$,,,*****!>+...",
" .+&$,,,,**,**!!!,=...",
" .;-,,,,,,****!!!)=...",
" .'#>,,******!!!*@'...",
" ..+-,*,***!!!!!$+....",
" ..'@>,****!!!*$@'....",
"  ..'@),*!*!!*$@..... ",
"  ...'+#)>>$)@='..... ",
"   ....'==++='......  ",
"    ...............   ",
"     .............    ",
"       .........      "};
