/* XPM */
static const char *ledgreen_xpm[] = {
/* columns rows colors chars-per-pixel */
"16 16 17 1",
"  c black",
". c #000200",
"X c #021704",
"o c #033708",
"O c #017A0C",
"+ c #02710C",
"@ c #00980E",
"# c #038D10",
"$ c #00AB10",
"% c #05A214",
"& c #00B811",
"* c #00C312",
"= c #00CB13",
"- c #00D614",
"; c #00E616",
": c #02F719",
"> c None",
/* pixels */
">>>>>     .>>>>>",
">>>  oO%%+o..>>>",
">> X%*==*&%#X.>>",
"> X$=----=*%#X.>",
"> %=-;:;--*&%# >",
".o=--::::--&%%o ",
".O=-;:::;;=*$%+ ",
".%*-;::::--&$@# ",
" %*-;;:;;-=&$@# ",
" +&=--;;--*$%@+ ",
" o$&*====*&$@@o ",
"> #$&&**&$$@@O >",
"> X#$$$&$@@@#X >",
">> XO@@@@@@OX >>",
">>>  o+##+o  >>>",
">>>>>      >>>>>"
};
