/* XPM */
static const char *ledlightgreen_xpm[] = {
/* columns rows colors chars-per-pixel */
"16 16 17 1",
"  c black",
". c #000401",
"X c #03270D",
"o c #07591F",
"O c #00D73C",
"+ c #0AFA4E",
"@ c #2FFA69",
"# c #22DF58",
"$ c #46FC7A",
"% c #10B23E",
"& c #56FE85",
"* c #6DFE96",
"= c #7DFEA2",
"- c #8CFEAC",
"; c #A1FEBC",
": c #ACFEC3",
"> c None",
/* pixels */
">>>>>..    >>>>>",
">>> .o%$$%o  >>>",
">> X#$$$$$@OX >>",
"> X$&**&&$@@#X >",
"> #&*---**&@+O >",
".o$*--;;-*&$@+o ",
".%**-;::-=&@@+% ",
".@$*=-::-=*@++O ",
".@$&*---=*&@@++ ",
".%@&**=-*&@@++% ",
".o@@$&&&&@@+++o ",
">.O@@@@$@@@+OO >",
">.X#+@@+++++OX.>",
">> XO+++++OOX.>>",
">>> .o%OO%o. >>>",
">>>>>..... >>>>>"
};
