/* XPM */
static const char *ledred_xpm[] = {
/* columns rows colors chars-per-pixel */
"16 16 17 1",
"  c black",
". c #060000",
"X c #290303",
"o c #5D0909",
"O c #B91414",
"+ c #F90B0B",
"@ c #FB3030",
"# c #D20B0B",
"$ c #FF5757",
"% c #FD4848",
"& c #FF7676",
"* c #FF6767",
"= c #D24040",
"- c #FF8F8F",
"; c #FFAFAF",
": c #FFC1C1",
"> c None",
/* pixels */
">>>>>     .>>>>>",
">>>  o==@Oo..>>>",
">> X=$$*$%@#X >>",
"> X%*&&&&$%@#X.>",
">.=*&----&$%@#.>",
" o$&-;;;-&*%@+o ",
" =$&-;;:;&*%@+# ",
" %$&-;:;--*%@++ ",
" @%&--;--&$%@++ ",
" O%$*&--&*%@++# ",
" o@$$****%%@++o ",
">.#@@%%%%@@++# >",
"> X@@@@@@++++X >",
">> X#++++++#X >>",
">>> .oO++Oo. >>>",
">>>>>      >>>>>"
};
