/* XPM */
static const char *ledyellow_xpm[] = {
/* columns rows colors chars-per-pixel */
"16 16 17 1",
"  c black",
". c #050500",
"X c #282903",
"o c #595C09",
"O c #B1B714",
"+ c #F5FE08",
"@ c #ECF40E",
"# c #F3FA30",
"$ c #CDD415",
"% c #F7FE48",
"& c #F8FE58",
"* c #E2E74B",
"= c #F8FE6F",
"- c #FAFE8F",
"; c #FBFEAE",
": c #FCFEC1",
"> c None",
/* pixels */
">>>>>      >>>>>",
">>>  oO**Oo. >>>",
">> X**&&&%#$X >>",
"> X*===-=&%#@X >",
">.*&=---==&%#$ >",
" o&=-;;;--&%#+o ",
" O=--;:;;-&%#@O ",
" *&=-;;:--=%#+@ ",
" #&=--;--=&%#+@.",
" O#&=-=-==&##+O ",
" o#&&&===%##++o ",
">.$##%%&%##++$.>",
"> X@@####@++@X >",
">> X$++++++$X >>",
">>> .oO@@Oo. >>>",
">>>>>      >>>>>"
};
