/* XPM */
static const char *ok_xpm[] = {
/* columns rows colors chars-per-pixel */
"16 16 17 1",
"  c #004400",
". c #004B00",
"X c #005900",
"o c #006500",
"O c #006C00",
"+ c #007400",
"@ c #007B00",
"# c #008400",
"$ c #008C00",
"% c #019100",
"& c #059A02",
"* c #0AB20A",
"= c #00CA00",
"- c #04D604",
"; c #02EE02",
": c gray100",
"> c None",
/* pixels */
">>>>>>>>>>>>>>>>",
">>>>>>>>>>>>>>>>",
"%>>>>>>>>>>>>%&&",
"$#>>>>>>>>>#$$$%",
"#%@>>>>>>+@**##>",
"#*&O>>>o+***@@>>",
"O*;$ooO#*;=O@>>>",
"o#;-@+*;;*XO>>>>",
">o=;--;;*Xo>>>>>",
">X&---=#.>>>>>>>",
">.O===O.>>>>>>>>",
">>.**X >>>>>>>>>",
">>.+X >>>>>>>>>>",
">>   >>>>>>>>>>>",
">>>>>>>>>>>>>>>>",
">>>>>>>>>>>>>>>>"
};
