/* XPM */
static const char *stop_hand_xpm[] = {
/* columns rows colors chars-per-pixel */
"16 16 17 1",
"  c #380202",
". c #630000",
"X c #690200",
"o c #410202",
"O c #8E0500",
"+ c #B21601",
"@ c #D32300",
"# c #C8240A",
"$ c #EA5A4D",
"% c #C95244",
"& c #C7B5B5",
"* c gray100",
"= c #F4F2F2",
"- c #E8E2E2",
"; c #DDD2D2",
": c #BEA7A7",
"> c None",
/* pixels */
">>>>>.....X>>>>>",
">>>..$$$$$$X.>>>",
">>.$$@  @@@$$X>>",
">.$@  --  @@@#.>",
">.$ *:==:* @@#.>",
".$# *&==&* @+@#.",
".$+ *&==&* +o++.",
".#+ *&==&*  * +.",
".#+ *&&&:* ** +.",
".++ &***;&**%O+.",
".OO ***&=***oOO.",
">.O ***&*** OO.>",
">.OO ***** OOOX>",
">>.OO     OOOX>>",
">>>..OOXXOO..>>>",
">>>>>......>>>>>"
};
