/* XPM */
static const char *walk_r2_xpm[] = {
/* columns rows colors chars-per-pixel */
"16 16 17 1",
"  c #000000",
". c #020202",
"X c #040405",
"o c #090A0A",
"O c #181716",
"+ c #2C2C2C",
"@ c #251400",
"# c #4D4D4D",
"$ c #6D6C6B",
"% c #4F3E26",
"& c #C56C0A",
"* c #FD9104",
"= c #F8AA22",
"- c #D6B052",
"; c #E5E5E2",
": c #B7B2A7",
"> c None",
/* pixels */
">>>>>>>>>>>>>>>>",
">>>>>>#++#>>>>>>",
">>>>>#Ooo+O>>>>>",
">>>>>+O+$$-;>>>>",
">>>>>Oo%--===>>>",
">>>>>+X@&=*=*>>>",
">>>>O+X o%&**>>>",
">>>>#OX X++.>>>>",
">>>$+o+o%:$+$>>>",
">>>#++OO:;:$o>>>",
">>>$#oX%:;;:>>>>",
">>>$+.X#;;;:>>>>",
">> +OXo$;;::=>>>",
">> OOXX#:;-==>>>",
">>+ oo@%====*>>>",
">>> +%%&****>>>>"
};
