/* XPM */
static const char *walk_r4_xpm[] = {
/* columns rows colors chars-per-pixel */
"16 16 17 1",
"  c #000000",
". c #050505",
"X c #0B0B0A",
"o c #161514",
"O c #2D2D2C",
"+ c #37270D",
"@ c #515151",
"# c #717171",
"$ c #564022",
"% c #A56F21",
"& c #FD930A",
"* c #F1AA1F",
"= c #E3BA3F",
"- c #999897",
"; c gray100",
": c #7F8187",
"> c None",
/* pixels */
">>>>>>>>>>>>>>>>",
">>>>>>#Oo@>>>>>>",
">>>>>@OoXO@>>>>>",
">>>>>@oo@#%;>>>>",
">>>>>OX$==***>>>",
">>>>>O +%&&&*>>>",
">>>>@o  .+%&&>>>",
">>>>O   XO#->>>>",
">>>>o  Xoo#->>>>",
">>>#O  .Oo@-:>>>",
">>>@o   XO@-:>>>",
">>>@O   .O--#>>>",
">> Oo.  X#-=*>>>",
">>.$&%+..#-*=>>>",
">> %&*=%+@***>>>",
">>>>&*&=%&&&>>>>"
};
