/* XPM */
static const char *walk_r6_xpm[] = {
/* columns rows colors chars-per-pixel */
"16 16 17 1",
"  c #000000",
". c #020202",
"X c #050506",
"o c #0C0C0C",
"O c #181817",
"+ c #2E2E2E",
"@ c #291F13",
"# c #626160",
"$ c #544227",
"% c #AD6E1E",
"& c #A97935",
"* c #F9920C",
"= c #F1A620",
"- c #CDAF4D",
"; c #DFDFDE",
": c #9C9C9D",
"> c None",
/* pixels */
">>>>>>>>>>>>>>>>",
">>>>>>#++#>>>>>>",
">>>>>#+oX++>>>>>",
">>>>>+O@$#-;>>>>",
">>>>>+o$--*==>>>",
">>>>>+.@%***=>>>",
">>>>#O..@$%**>>>",
">>>>+X .o+#:>>>>",
">>>>@X o@O::>>>>",
">>>++. .O@#:>>>>",
">>>+O.  O##:#>>>",
">>>-+...+:;:#>>>",
">>>==$..#;;:->>>",
">>+%*=&$#:&==>>>",
">>$+$%**&&==*>>>",
">>>#+#&*%%==>>>>"
};
