/* XPM */
static const char *walk_r1_xpm[] = {
/* columns rows colors chars-per-pixel */
"16 16 17 1",
"  c #000000",
". c #060607",
"X c #090A0A",
"o c #161514",
"O c #2D2D2D",
"+ c #32220A",
"@ c #5B5B5B",
"# c #513C2A",
"$ c #C5570F",
"% c #FE9004",
"& c #FBAE2E",
"* c #F6A617",
"= c #D3A85B",
"- c #989A9A",
"; c #E7E6E2",
": c #7E8B97",
"> c None",
/* pixels */
">>>>>>@OO@>>>>>>",
">>>>>@X oOO>>>>>",
">>>>>OoO@@=;>>>>",
">>>>>.X#=&***>>>",
">>>>>Oo+$%%%*>>>",
">>>>.oX X@=%%>>>",
">>>@o.. X@@O->>>",
">-#OXoo.@-@oO;>>",
">:#oOOXo-;-oO->>",
">-@@OX o-;;->>>>",
">$*&o. O-;;-%&>>",
">%*&+  o:;;*&&>>",
">>$$+  .#-=&&%>>",
">>OX    o@&**$>>",
">>XO#+X.X$%%%>>>",
">>>&**#+@:&>>>>>"
};
