/* XPM */
static const char *walk_r8_xpm[] = {
/* columns rows colors chars-per-pixel */
"16 16 17 1",
"  c #000000",
". c #020202",
"X c #060505",
"o c #0B0B0A",
"O c #161514",
"+ c #2D2E2E",
"@ c #281A15",
"# c #575655",
"$ c #5C3912",
"% c #945C1B",
"& c #FA930A",
"* c #FAAD23",
"= c #E7AD54",
"- c #F2C52B",
"; c #CDC4B9",
": c #3BA8FF",
"> c None",
/* pixels */
">>>>>>>>>>>>>>>>",
">>>>>>#@@#>>>>>>",
">>>>>+XXo++>>>>>",
">>>>>OoO##=->>>>",
">>>>>XX$==*=->>>",
">>>>>+oO%&&&&>>>",
">>>>++X .@#&&>>>",
">>>>+Xo+X##+O>>>",
">>.@oo+O@;;##>>>",
">>.+++Oo#;;#+>>>",
">>>#Ooo@;;;;>>>>",
">>>X. o+;;;;>>>>",
">>.OX..+;;==**>>",
">>.oX..+;=-**->>",
">> o@o.$%**==>>>",
">>>=%%@%&**>>>>>"
};
