/* XPM */
static const char *walk_r7_xpm[] = {
/* columns rows colors chars-per-pixel */
"16 16 17 1",
"  c #000000",
". c #010202",
"X c #050505",
"o c #0B0A08",
"O c #171614",
"+ c #2F2F2E",
"@ c #29241D",
"# c #5D5D5C",
"$ c #4C371D",
"% c #AA6812",
"& c #F6A41D",
"* c #FFD225",
"= c #C5A35E",
"- c #9C9C9B",
"; c #E3E3E0",
": c #D6C193",
"> c None",
/* pixels */
">>>>>>>>>>>>>>>>",
">>>>>>-++->>>>>>",
">>>>>O#+++X>>>>>",
">>>>>#oo@##>>>>>",
">>>>>@O+#=&&*>>>",
">>>>>+.$&&&&&>>>",
">>>>>OXX$%&&&>>>",
">>>>+oXX@O+>>>>>",
">>>>OX+O+#;#>>>>",
">>>>oO++#-;-#>>>",
">>>>XO+++-;-#>>>",
">>>>XX+o#;;;#>>>",
">>>>..o@=:::>>>>",
">>OOoo%&&&&&>>>>",
">>..XO%&%%**>>>>",
">>> oo$$%&&&>>>>"
};
