/* XPM */
static const char *walk_r3_xpm[] = {
/* columns rows colors chars-per-pixel */
"16 16 17 1",
"  c #000000",
". c #070707",
"X c #0A0A0A",
"o c #161616",
"O c #15110A",
"+ c #2C2C2B",
"@ c #505151",
"# c #6F6F6C",
"$ c #5D4014",
"% c #986E32",
"& c #FDB533",
"* c #F59D0D",
"= c #D7B34B",
"- c #9B9B9B",
"; c #EAE9E4",
": c #747982",
"> c None",
/* pixels */
">>>>>>>>>>>>>>>>",
">>>>>>X @->>>>>>",
">>>>>;O.+@ >>>>>",
">>>>>@o.o@#>>>>>",
">>>>>oo@-%=&&>>>",
">>>>>+O$*&***>>>",
">>>>@o.O$%***>>>",
">>>>+o.oO$#>>>>>",
">>>>oXXO+:->>>>>",
">>>@+Oo.@;;@>>>>",
">>>+OX+O#;;#>>>>",
">>>X..++-;;@>>>>",
">>>...+@-;-@>>>>",
">>+o.OO+--->>>>>",
">>ooO$%====&>>>>",
">>>XO%*&&&&&>>>>"
};
