/* XPM */
static const char *walk_r5_xpm[] = {
/* columns rows colors chars-per-pixel */
"16 16 17 1",
"  c #000000",
". c #050505",
"X c #0A0A0A",
"o c #161513",
"O c #2F2B26",
"+ c #494A4B",
"@ c #716E69",
"# c #55452C",
"$ c #AD6F17",
"% c #FAAD2C",
"& c #F59F15",
"* c #FFE31B",
"= c #CDA056",
"- c #A09E9B",
"; c #C8C8C7",
": c blue",
"> c None",
/* pixels */
">>>>>>-OO+>>>>>>",
">>>>>@OooO+>>>>>",
">>>>>+oX+@=*>>>>",
">>>>>XoO==&%%>>>",
">>>>>O.O$&&&%>>>",
">>>>>OX.O#=&&>>>",
">>>>+o. XO++>>>>",
">>+++X  ooXoX>>>",
">;+OO.  XO@oXo>>",
">;++o.  .O;- o>>",
">>>*o   .o-;@>>>",
">>%&#   .o@-%*>>",
">>=&$o.  .+=%*>>",
">>+$%$X  .o&%>>>",
">>:#&&#..O$&%>>>",
">>>%%&$Xo$&=>>>>"
};
