/* XPM */
static char *magick[] = {
/* columns rows colors chars-per-pixel */
"32 32 38 1",
"  c #16f616",
". c #36d616",
"X c #36f616",
"o c #2dec2d",
"O c #4dcc2d",
"+ c #40ff00",
"@ c #56f616",
"# c #4dec2d",
"$ c #5ad95a",
"% c #43e343",
"& c #b65616",
"* c #d63616",
"= c #ec2d2d",
"- c #f65616",
"; c #90b070",
": c #b0b070",
"> c #b6d616",
", c #bfff00",
"< c #acec2d",
"1 c #99d95a",
"2 c #90d070",
"3 c #b9d95a",
"4 c #b0d070",
"5 c #d6f616",
"6 c #f6f616",
"7 c #ecec2d",
"8 c #d9d95a",
"9 c #c3e343",
"0 c #e3e343",
"q c #9dbd9d",
"w c #bd9d9d",
"e c #a6a686",
"r c #bdbd9d",
"t c none",
"y c #86c686",
"u c #a6c686",
"i c #c68686",
"p c #c6c686",
/* pixels */
"tttttttttttttttttttttttttttttttt",
"tttttttttttttttttttttttttttttttt",
"tttttttttttttttttttttttttttttttt",
"tttttttttttttttttttttttttttttttt",
"tttttttrttttttwwwwwwwwwwwwwwwwww",
"ttttttr0pttttw==================",
"ttttttr60ptttw=iwwwwwwwwwwwwwwww",
"ttttqqu738pttw=wtttttttttttttttt",
"ttqyoo#,#19ptw=wtttttttttttttttt",
"tqoooyu5Xo@<uw=wtttttttttttttttt",
"tyoyqtr7uqy#o:=wtttttttttttttttt",
"qooqttr7rttyX>-wtttttttttttttttt",
"yoytttr7rttqo+>ptttttttttttttttt",
" oqtttr7rtttyo+<pttttttttttttttt",
"X2rrrrp7rtttty.+9prrrrrrrrrrrrrr",
"57777777rttttw&.4077777777777777",
"rrrrrrrrtttttw*Oyrrrrrrrrrrrrrru",
"tttttttttttttw=;%qttttttttttttyo",
"tttttttttttttw=e%ytttttttttttyo ",
"tttttttttttttw=wy$ytttttttttyooy",
"tttttttttttttw=wty%ytttttttyooyt",
"tttttttttttttw=wtqooytttttyooytt",
"wwwwwwwwwwwwwi=wttyooyqqqy%oyttt",
"===============wtttyooooo%yqtttt",
"wwwwwwwwwwwwwwwtttttqqqqqqtttttt",
"tttttttttttttttttttttttttttttttt",
"tttttttttttttttttttttttttttttttt",
"tttttttttttttttttttttttttttttttt",
"tttttttttttttttttttttttttttttttt",
"tttttttttttttttttttttttttttttttt",
"tttttttttttttttttttttttttttttttt",
"tttttttttttttttttttttttttttttttt"
};
