/* XPM */
static char *magick[] = {
/* columns rows colors chars-per-pixel */
"19 19 76 1",
"  c #2f1919",
". c #301919",
"X c #311919",
"o c #321919",
"O c #331919",
"+ c #351919",
"@ c #381919",
"# c #391919",
"$ c #3c1919",
"% c #3d1919",
"& c #401919",
"* c #411919",
"= c #481919",
"- c #491919",
"; c #4b1919",
": c #4f1919",
"> c #511919",
", c #521919",
"< c #601919",
"1 c #611919",
"2 c #7c1919",
"3 c #821919",
"4 c #831919",
"5 c #8c1919",
"6 c #8d1919",
"7 c #8e1919",
"8 c #921919",
"9 c #981919",
"0 c #991919",
"q c #a41919",
"w c #a51919",
"e c #b11919",
"r c #b21919",
"t c #b31919",
"y c #b51919",
"u c #b61919",
"i c #bd1b1b",
"p c #ca1919",
"a c #cb1919",
"s c #d11919",
"d c #d41919",
"f c #d51919",
"g c #d71919",
"h c #d81919",
"j c #dc1b1b",
"k c #dc2020",
"l c #e01919",
"z c #e61919",
"x c #e71919",
"c c #e91b1b",
"v c #eb1919",
"b c #ea1b1b",
"n c #ec1919",
"m c #ed1919",
"M c #f41919",
"N c #fa1919",
"B c #fb1919",
"V c #f91d1d",
"C c #ff1919",
"Z c #ff1a1a",
"A c #ff1c1c",
"S c #e32020",
"D c #e42020",
"F c #ff2121",
"G c #ff2b2b",
"H c #ff2c2c",
"J c #ff3232",
"K c #ff3838",
"L c #ff4343",
"P c #ff5a5a",
"I c #ff5b5b",
"U c #ff6464",
"Y c #ff8b8b",
"T c #ffafaf",
"R c #ffd4d4",
"E c none",
/* pixels */
"EEEEEE ..... EEEEEE",
"EEEE .o+@#@+o. EEEE",
"EEE.X@&=:>:-&@X.EEE",
"EE.o$;<35653<;$o.EE",
"E o$:28qeurw82:$o E",
"E.@;29upfjSki02;@.E",
" o&18uslcGPUJi81*o ",
".+-4qplnVLTRUkw4-+.",
".@:5rdxMAKYTIDt5:@.",
".#,7uhvBZFKLHju7,#.",
".@:5rfmCCZAVbfr5:@.",
".+-4qazNCBMvlpq4-+.",
" o&18udzmvxlsu81&o ",
"E.#;29uafgdpu92;@.E",
"E o%:28qeyeq82:$o E",
"EE.O%;<35653<;$o.EE",
"EEE.o@&=:>:=&@X.EEE",
"EEEE .o+@#@+o. EEEE",
"EEEEEE ..... EEEEEE"
};
