/* XPM */
static char * knob_xpm[] = {
"8 8 18 1",
" 	c none",
".	c #A699AAAAA699",
"X	c #B6DAB6DAB6DA",
"o	c #FFFFFFFFFFFF",
"O	c #D75CD75CD75C",
"+	c #9E799A699E79",
"@	c #AEBAAEBAAEBA",
"#	c #BEFBBEFBBEFB",
"$	c #CF3CD34CCF3C",
"%	c #9E799E799E79",
"&	c #B6DAB2CAB6DA",
"*	c #C71BC71BC71B",
"=	c #E79DEBADE79D",
"-	c #E79DE79DE79D",
";	c #965896589658",
":	c #C71BCB2BC71B",
">	c #8E388E388E38",
",	c #8E388A288E38",
" .XooO  ",
"+@#$ooo ",
"%&*O=ooo",
"+@#$-=-o",
";.X:$O$o",
">%@X#*#o",
" ,%.@&@.",
"  ,;+%+ "};
