/* XPM */
static char * kwave_xpm[] = {
"32 32 5 1",
".	c None",
"+	c #666666",
"@	c #919191",
"#	c #FFFFFF",
"$	c #CCCCCC",
"................................",
"................................",
"................................",
"................................",
"................................",
"..+@@@@@@@@@..+@@@@@@@@.........",
"..+@@+@@@@+@..+++@@@+++.........",
"..++++@@@@......@@@.............",
"....+@@@@......+@@............#.",
"....+@@@@......@@......#......#.",
"....+@@@@.....@@......###.....##",
"....+@@@@....@@+.....##.#....###",
"....+@@@@...@@+......##.#....###",
"...+@@@@...@@+#......#..##..####",
"...+@$$@..@$####....##..##..##.#",
"...+@$###$$##$.#....##..##..##.#",
"...+@@@$####$@.##...#...##..##.#",
"...+@@@@.+@@@@@.#..##...##..##..",
"...+@@@@..+@@@@.##.##...##.###..",
"..+@@@@...+@@@@@.#.#....##.##...",
"..+@@@@....+@@@@.###.....####...",
"..+@@@@....+@@@@@.#......####...",
"..+@@@@.....+@@@@........####...",
"..+@@@@.....+@@@@@.........#....",
"+@@@@@@@@....+@@@@@@@......#....",
"+@@@@@@@@.....+@@@@@@...........",
"+++++++++......++++++...........",
"................................",
"................................",
"................................",
"................................",
"................................"};
