/* XPM */
static char *magick[] = {
/* columns rows colors chars-per-pixel */
"32 32 4 1",
"  c #000000",
". c #5c5d5c",
"X c none",
"o c #a1a0a1",
/* pixels */
"Xo   XXXXXXX. .XXXXXXXXXXXXXXXXX",
"X   XXXXXXXXX. oXXXXXXXXXXXXXXXX",
"   XXXX  XXXXX. oXXXXXXXXXXXXXX ",
"  XXXo.  . XXXX  XXXXXXXXXXXXX. ",
"oXXX.      oXXXX  XXXXXXXXXXXX  ",
"XXX.  .oo.  .XXXo .XXXXXXXXXX. o",
"XX.  XXXXXo  oXXXo .XXXXXXXX. .X",
"Xo .XXXXXXXX. oXXX.  XXXXXX. .XX",
"o .XXXXXXXXXX  XXXX.  .oo.  .XXX",
"  XXXXXXXXXXX. .XXXX.      .XXXX",
" XXXXXXXXXXXXXo .XXXXo.  .oXXXXX",
"oXXXXXXoooXXXXXo oXXXXX XXXXXXXX",
"XXXXX.    . XXXX.  XXXXXXXXXXXX ",
"XXX         oXXX    XXXXXXXXXXX ",
"XX   . XX .  oXXXo  XXXXXXXXXX  ",
"XX  oXXXXXXo   XXXo  XXXXXXX   o",
"X  oXXXXXXXXo   XXX.  oXXXXo  oX",
". oXXXXXXXXXXo .XXXX.   ..   .XX",
" oXXXXXXXXXXXXo .XXXXo      oXXX",
".XXXXXX  XXXXXX. oXXXX .  .XXXXo",
"XXXXXo.   oXXXXX. oXXXXXXXXXXXo ",
"XXXX.       oXXX   oXXXXXXXXXo  ",
"XXX.  .oo.    XXX   oXXXXXXX.   ",
"XX.  XXXXXX.  XXXXo  . XXX .   X",
"X. .XXXXXXXXo   XXXo   ..     XX",
"o .XXXXXXXXXXo .XXXXX      .XXXX",
" . XXXXXXXXXXXo .XXXXXo...oXXXX.",
" XXXXXXX XXXXXX. .XXXXXXXXXXXXo ",
"XXXXXo.   oXXXXX. oXXXXXXXXXXo .",
"XXXX.      .XXXXX. oXXXXXXXXo  X",
"XXXo  .oo.  .XXXXX  oXXXXXXo  XX",
"XXo  XXXXXX. . XXX   .oXXo.   XX"
};
