/* XPM */
static char *magick[] = {
/* columns rows colors chars-per-pixel */
"19 20 87 1",
"  c Gray0",
". c #131313",
"X c Gray11",
"o c Gray15",
"O c #282828",
"+ c #2a2a2a",
"@ c Gray17",
"# c #2f2f2f",
"$ c Gray19",
"% c #343434",
"& c Gray22",
"* c Gray24",
"= c #3e3e3e",
"- c #3f3f3f",
"; c Gray25",
": c #484848",
"> c #494949",
", c #4b4b4b",
"< c #4c4c4c",
"1 c #4e4e4e",
"2 c #515151",
"3 c #535353",
"4 c Gray33",
"5 c #555555",
"6 c #565656",
"7 c #5a5a5a",
"8 c #5b5b5b",
"9 c #5d5d5d",
"0 c Gray37",
"q c #5f5f5f",
"w c #606060",
"e c Gray38",
"r c #626262",
"t c Gray39",
"y c #646464",
"u c Gray40",
"i c #676767",
"p c Gray41",
"a c #6a6a6a",
"s c Gray42",
"d c #6d6d6d",
"f c Gray43",
"g c Gray44",
"h c #717171",
"j c Gray45",
"k c #747474",
"l c Gray46",
"z c #777777",
"x c Gray47",
"c c #797979",
"v c Gray48",
"b c #7b7b7b",
"n c #7c7c7c",
"m c Gray",
"M c Gray50",
"N c #808080",
"B c Gray51",
"V c #838383",
"C c #848484",
"Z c Gray52",
"A c #868686",
"S c Gray53",
"D c #888888",
"F c #898989",
"G c #909090",
"H c Gray57",
"J c #929292",
"K c #989898",
"L c Gray61",
"P c #9f9f9f",
"I c #a0a0a0",
"U c #a2a2a2",
"Y c #a5a5a5",
"T c Gray65",
"R c #a7a7a7",
"E c #aeaeae",
"W c Gray71",
"Q c #b6b6b6",
"! c #b7b7b7",
"~ c Gray73",
"^ c #bcbcbc",
"/ c #bebebe",
"( c Gray75",
") c #c0c0c0",
"_ c #c5c5c5",
"` c #ececec",
"' c none",
/* pixels */
"''''''''''''   ''''",
"'''''''''''r    '''",
"''''''''''i      ''",
"'''''''''sn      ''",
"''''''''gmC       '",
"'''124>kNZD       '",
"'JL0qwXBADF       '",
"~^crttCASDD   PIw '",
"__tttyAAAAA   E!U '",
"__rrrrCVVVV   /`Y> ",
")(qqqqmmMMM   KPH$ ",
"QW8877lzxcv   bmr  ",
"RTd544asfhj    @   ",
"JGq<<,:7eup        ",
"'s>;-=**<69       '",
"''.'+OoX#-,3      '",
"'''''''''.%-      '",
"'''''''''''o&     '",
"'''''''''''''    ''",
"''''''''''''''  '''"
};
