/* XPM */
static char * selectedknob_xpm[] = {
"8 8 13 1",
" 	c none",
".	c #AEBA00000000",
"X	c #B6DA00000000",
"o	c #FFFF00000000",
"O	c #D75C00000000",
"+	c #9E7900000000",
"@	c #BEFB00000000",
"#	c #C71B00000000",
"$	c #EFBE00000000",
"%	c #E79D00000000",
"&	c #965800000000",
"*	c #CF3C00000000",
"=	c #8E3800000000",
" .XooO  ",
"+.@Oooo ",
"+X#O$ooo",
"+.@O%$%o",
"&.X*OOOo",
"=+.X@#@o",
" =+..X..",
"  =&+++ "};
