/* XPM */
static char *minifont[] = {
/* width height ncolors chars_per_pixel */
"258 5 2 1",
/* colors */
"a c Gray100",
"b c Black",
/* pixels */
"abbbaabbbbaaabbbbabbbbaabbbbbabbbbbaabbbaabaaabaabbbaaabbbbabaaababaaaaaabbbaabaaabaabbbaabbbbaaabbbaabbbbaaabbbbabbbbbabaaababaaababaaababaaababaaababbbbbaabbbaaaabbaaabbbaabbbbaabaabaabbbbbaabbbaabbbbbaabbbaaabbbaaaabaaaababaaaabbaaaaaaaaaabaaaabaaaaaaaaaa",
"baaababaaababaaaaabaaababaaaaabaaaaabaaaaabaaabaaabaaaaaaababaabaabaaaaababababbaababaaababaaababaaababaaababaaaaaaabaaabaaababaaababaaabaababaaababaaaaabaabbaabaabbbaabaaabaaaaababaabaabaaaaabaaaaaaaabbabaaababaaabaaabaaaababaaabaabaaaaaaaababaabaaaaaaaaaaa",
"bbbbbabbbbaabaaaaabaaababbbbaabbbbaababbbabbbbbaaabaaaaaaababbbaaabaaaaabababababababaaababbbbaabaaababbbbaaabbbaaaabaaabaaababaaababaaabaaabaaaaabaaaaabaaabababaaabbaaaaabaaaabbaabbbbbabbbbaabbbbaaaabbaaabbbaaabbbbaaaaaaaaaaaaaaabbaaaaaaaaaabaabaabaaaaabbba",
"baaababaaababaaaaabaaababaaaaabaaaaabaaababaaabaaabaaabaaababaabaabaaaaabaaababaabbabaaababaaaaaabbbaabaabaaaaaabaaabaaabaaabaababaabababaababaaaabaaaabaaaabaabbaaabbaaabbaaaaaaabaaaabaaaaaababaaabaabbaaabaaabaaaaabaaaaaaaaaaaaaaaaaaaaabbaaaaaabaababaaaaaaaa",
"baaababbbbaaabbbbabbbbaabbbbbabaaaaaabbbaabaaabaabbbaaabbbbabaaababbbbaabaaababaaabaabbbaabaaaaaaaabbabaaababbbbaaaabaaabbbbbaaabaaaabbbaabaaabaaabaaabbbbbaabbbaaaabbaabbbbbabbbbaaaaabaabbbbaaabbbaabbaaaaabbbaaabbbaaaaaaaaaaaaaaaaaaaaaabbaaaaabaaaabaaaaaaaaa"
};
