/* XPM */
static const char *xpm_filesaveas[]={
"22 22 6 1",
"d c #808080",
"b c #c0c0c0",
"a c #000000",
"# c #585858",
"c c #ffffff",
". c None",
"......................",
"..................#a#.",
"..................a.a.",
"...................#a.",
"....aaaaaaaaaaaaa..a..",
"....abccccccccbbad.a..",
"....abcaaaaaccbbad....",
"....abccccccccbbad.a..",
"....abcaaaccccbbad....",
"....abccccccccbbad....",
"....abccccccccbbad....",
"....abbbbbbbbbbbad....",
"....abddddddddddad....",
"....abddddddddddad....",
"....abddbbbbbddbad....",
"....abddbbddbddbad....",
"....abddbbddbddbad....",
"....aaaaaaaaaaaaad....",
".....ddddddddddddd....",
"......................",
"................a.a.a.",
"......................"};
