/* XPM */
static const char * xpm_loop[] = {
"22 22 2 1",
" 	c None",
".	c #000000",
"      ..........      ",
"     ..        ..     ",
"     .          .     ",
"     ..   .    ..     ",
"      .  .......      ",
"          .           ",
"      ..              ",
"      ....            ",
"      ......          ",
"      ........        ",
"      ..........      ",
"      ..........      ",
"      ........        ",
"      ......          ",
"      ....            ",
"      ..              ",
"                      ",
"                      ",
"                      ",
"                      ",
"                      ",
"                      "};
