/* XPM */
/* Drawn  by Mark Donohoe for the K Desktop Environment */
/* See http://www.kde.org */
static const char *xpm_zoomout[]={
"22 22 6 1",
"# c #000000",
"c c #a0a0a4",
"a c #dcdcdc",
"b c #ffffff",
"x c #7f7f7f",
". c None",
"......................",
"......................",
"......................",
"......................",
"......................",
".......####...........",
"......#abba#..........",
".....#abcbba#.........",
".....#bcbbbb#.........",
".....#bbbbbb#.........",
".....#abbbba#.........",
"......#abba##.........",
".......#######........",
"............###.......",
".............###......",
"..xxxxxxx.....###.....",
"..xbbbbbx......##.....",
"..xxxxxxx.............",
"......................",
"......................",
"......................",
"......................"};

