/* XPM */
static char * light_off_xpm[] = {
"16 16 97 2",
"  	c None",
". 	c #A4464B",
"+ 	c #E17575",
"@ 	c #F58787",
"# 	c #F58585",
"$ 	c #E36F6F",
"% 	c #A74346",
"& 	c #7A2226",
"* 	c #F75D5D",
"= 	c #FE7872",
"- 	c #FE7C76",
"; 	c #FE807A",
"> 	c #FF8781",
", 	c #F8615E",
"' 	c #7E2227",
") 	c #761C22",
"! 	c #F7514D",
"~ 	c #EC544C",
"{ 	c #EA4E46",
"] 	c #EC5D56",
"^ 	c #EF483F",
"/ 	c #F95551",
"( 	c #791B20",
"_ 	c #D82E2E",
": 	c #CF3B2F",
"< 	c #CE2E26",
"[ 	c #D23A32",
"} 	c #D83430",
"| 	c #3D090C",
"1 	c #8F0F18",
"2 	c #B9130B",
"3 	c #AD1109",
"4 	c #B01710",
"5 	c #B9170F",
"6 	c #8A0C12",
"7 	c #9C080F",
"8 	c #7C0900",
"9 	c #870B01",
"0 	c #8C0A00",
"a 	c #860900",
"b 	c #8C0407",
"c 	c #82060F",
"d 	c #5C0900",
"e 	c #780800",
"f 	c #770901",
"g 	c #6C0500",
"h 	c #790303",
"i 	c #640C12",
"j 	c #190201",
"k 	c #380802",
"l 	c #640E00",
"m 	c #480700",
"n 	c #590305",
"o 	c #880615",
"p 	c #0F0201",
"q 	c #460300",
"r 	c #4C0700",
"s 	c #320400",
"t 	c #5B050B",
"u 	c #950714",
"v 	c #4E0200",
"w 	c #560C00",
"x 	c #6E080F",
"y 	c #A60202",
"z 	c #1A0400",
"A 	c #3C0800",
"B 	c #500B00",
"C 	c #580C00",
"D 	c #7C040A",
"E 	c #570709",
"F 	c #9E161F",
"G 	c #AE020E",
"H 	c #620C00",
"I 	c #700B00",
"J 	c #880600",
"K 	c #9E0700",
"L 	c #931201",
"M 	c #9D1C19",
"N 	c #860802",
"O 	c #7E0A10",
"P 	c #A6161D",
"Q 	c #CB0715",
"R 	c #9C0F00",
"S 	c #B6180C",
"T 	c #C73627",
"U 	c #CA3226",
"V 	c #B61206",
"W 	c #941100",
"X 	c #A00400",
"Y 	c #8C0A13",
"Z 	c #C51521",
"` 	c #EE3844",
" .	c #F85A66",
"..	c #F75B63",
"+.	c #E93942",
"@.	c #BE1820",
"#.	c #6F0909",
"                                ",
"          . + @ # $ %           ",
"      & * = - ; > > > , '       ",
"    ) ! ~ { ] ^ ^ ^ ^ ^ / (     ",
"    _ : < < < < < < < < [ } |   ",
"  1 2 3 4 4 4 4 4 4 4 4 4 5 6   ",
"  7 8 9 0 0 0 0 0 0 0 0 0 a b   ",
"  c d e f f f f f f f f f g h   ",
"  i j k l l l l l l l l k m n   ",
"  o p q r r r r r r r r q s t   ",
"  u s v w w w w w w w w v s x   ",
"    y z A B C C C C B A z D E   ",
"    F G H I J K L M I I N O     ",
"      P Q R S T U V W X Y       ",
"          Z `  ...+.@.#.        ",
"                                "};
