/* XPM */
static const char *light_on[] = {
/* columns rows colors chars-per-pixel */
"16 16 95 2",
"   c #020F01",
".  c #001900",
"X  c #041901",
"o  c #043200",
"O  c #033702",
"+  c #003C00",
"@  c #074500",
"#  c #044800",
"$  c #044B00",
"%  c #004F00",
"&  c #094E00",
"*  c #005600",
"=  c #005800",
"-  c #055C00",
";  c #145707",
":  c #125803",
">  c #175A05",
",  c #026200",
"<  c DarkGreen",
"1  c #096C00",
"2  c #1E640C",
"3  c #1D6E08",
"4  c #067000",
"5  c #097700",
"6  c #087701",
"7  c #097B00",
"8  c #157903",
"9  c #1A7C04",
"0  c #207D0A",
"q  c #2E751C",
"w  c #2D781B",
"e  c #337922",
"r  c #337D22",
"t  c #098500",
"y  c #0B8701",
"u  c #0C8700",
"i  c #0F8502",
"p  c #098C00",
"a  c #1F8206",
"s  c #198B04",
"d  c #059301",
"f  c #039400",
"g  c #099B00",
"h  c #0E9D00",
"j  c #119F00",
"k  c #278806",
"l  c #248B0A",
"z  c #238A0C",
"x  c #298E0F",
"c  c #299407",
"v  c #239C08",
"b  c #289C19",
"n  c #339E16",
"m  c #1AA602",
"M  c #18AD09",
"N  c #14B506",
"B  c #19B50C",
"V  c #1DB90B",
"C  c #1FB90F",
"Z  c #1FB010",
"A  c #25AD02",
"S  c #32A516",
"D  c #37BE18",
"F  c #32CA07",
"G  c #39C515",
"H  c #30C727",
"J  c #32C926",
"K  c #35CD26",
"L  c #3BCE2F",
"P  c #44D82F",
"I  c #48D82E",
"U  c #40D231",
"Y  c #4FEF3E",
"T  c #5CEF37",
"R  c #59E939",
"E  c #54A643",
"W  c #57A346",
"Q  c #54EA46",
"!  c #5AEC4B",
"~  c #63F74D",
"^  c #63EC55",
"/  c #65F950",
"(  c #72F75D",
")  c #7AF75B",
"_  c #71F95D",
"`  c #7AF85A",
"'  c #7EFF71",
"]  c #80E36F",
"[  c #85E175",
"{  c #81FF74",
"}  c #85FF78",
"|  c #8CFF81",
" . c #95F585",
".. c #96F586",
"X. c None",
/* pixels */
"X.X.X.X.X.X.X.X.X.X.X.X.X.X.X.X.",
"X.X.X.X.X.W [ .. .] E X.X.X.X.X.",
"X.X.X.e ( ' { } | | | _ r X.X.X.",
"X.X.q ~ ! Q ^ Y Y Y Y Y / w X.X.",
"X.X.I L K K K K K K K K U P X.X.",
"X.x V M Z Z Z Z Z Z Z Z Z C z X.",
"X.v 7 y p p p p p p p p p t s X.",
"X.a - 5 6 6 6 6 6 6 6 6 6 1 8 X.",
"X.2 X O < < < < < < < < O # : X.",
"X.k   @ $ $ $ $ $ $ $ $ @ o > X.",
"X.c o & * * * * * * * * & o 3 X.",
"X.X.m . + % = = = = % + . 9 ; X.",
"X.X.n A , 4 u h d b 4 4 i 0 X.X.",
"X.X.X.S F g B H J N f j l X.X.X.",
"X.X.X.X.X.G T ` ) R D X.X.X.X.X.",
"X.X.X.X.X.X.X.X.X.X.X.X.X.X.X.X."
};
