/* XPM */
static char *minifont[] = {
/* width height ncolors chars_per_pixel */
"258 5 2 1",
/* colors */
". c none",
"# c Black",
/* pixels */
".###..####...####.####..#####.#####..###..#...#..###...####.#...#.#......###..#...#..###..####...###..####...####.#####.#...#.#...#.#...#.#...#.#...#.#####..###....##...###..####..#..#..#####..###..#####..###...###....#....#.#....##..............##..#.......",
"#...#.#...#.#.....#...#.#.....#.....#.....#...#...#.......#.#..#..#.....#.#.#.##..#.#...#.#...#.#...#.#...#.#.......#...#...#.#...#.#...#..#.#...#.#.....#..##..#..###..#...#.....#.#..#..#.....#........##.#...#.#...#...#....#.#...#..#.............##.#........",
"#####.####..#.....#...#.####..####..#.###.#####...#.......#.###...#.....#.#.#.#.#.#.#...#.####..#...#.####...###....#...#...#.#...#.#...#...#.....#.....#...#.#.#...##.....#....##..#####.####..####....##...###...####...............##................#.....###.",
"#...#.#...#.#.....#...#.#.....#.....#...#.#...#...#...#...#.#..#..#.....#...#.#..##.#...#.#......###..#..#......#...#...#...#..#.#..#.#.#..#.#....#....#....#..##...##...##.......#....#......#.#...#..##...#...#.....#.....................##.........#.##.......",
"#...#.####...####.####..#####.#......###..#...#..###...####.#...#.####..#...#.#...#..###..#........##.#...#.####....#...#####...#....###..#...#...#...#####..###....##..#####.####.....#..####...###..##.....###...###......................##........#..##......."
};
