/* XPM */
static const char *xpm_pause[] = {
/* columns rows colors chars-per-pixel */
"32 32 256 2",
"   c #00051E",
".  c #000415",
"X  c #000722",
"o  c #000A22",
"O  c #000A2B",
"+  c #000D34",
"@  c #000F3A",
"#  c #001135",
"$  c #00113E",
"%  c #001345",
"&  c #00144C",
"*  c #001654",
"=  c #031C54",
"-  c #001759",
";  c #00195C",
":  c #0F2754",
">  c #08225B",
",  c #001A64",
"<  c #001C6A",
"1  c #0B1574",
"2  c #001E71",
"3  c #0C1977",
"4  c #001F79",
"5  c #101A75",
"6  c #101E79",
"7  c #181E78",
"8  c #131774",
"9  c #052062",
"0  c #02206A",
"q  c #08276C",
"w  c #07286E",
"e  c #17336A",
"r  c #022374",
"t  c #072974",
"y  c #00227D",
"u  c #07297D",
"i  c #092B79",
"p  c #15207A",
"a  c #103172",
"s  c #183876",
"d  c #16347C",
"f  c #002581",
"g  c #042983",
"h  c #0A2E86",
"j  c #072F8E",
"k  c #092E8A",
"l  c #1C2F8B",
"z  c #0D3187",
"x  c #0D328B",
"c  c #103683",
"v  c #1A3683",
"b  c #1B3987",
"n  c #1B3A89",
"m  c #1A348C",
"M  c #093595",
"N  c #103690",
"B  c #1F3790",
"V  c #133995",
"C  c #153D9A",
"Z  c #1A3F9B",
"A  c #1F3A95",
"S  c #223A94",
"D  c #1A428E",
"F  c #1D4084",
"G  c #174794",
"H  c #15409D",
"J  c #1C429E",
"K  c #1A4A93",
"L  c #155A9D",
"P  c #22418A",
"I  c #27449B",
"U  c #2A459A",
"Y  c #2B489E",
"T  c #24519C",
"R  c #1341A4",
"E  c #1E46A1",
"W  c #1647AE",
"Q  c #1B4EB4",
"!  c #1E52B5",
"~  c #2147A2",
"^  c #234AA4",
"/  c #284BA7",
"(  c #254EA9",
")  c #284EA9",
"_  c #2453A2",
"`  c #2F50A5",
"'  c #2B51AD",
"]  c #2C59AA",
"[  c #2557B3",
"{  c #2D55B0",
"}  c #2B5CB3",
"|  c #3356B2",
" . c #325AB5",
".. c #355DB9",
"X. c #395DB9",
"o. c #1E6FB1",
"O. c #2A68AE",
"+. c #2362AE",
"@. c #256CB2",
"#. c #2F62BE",
"$. c #2C6BBC",
"%. c #3C62BD",
"&. c #376BBE",
"*. c #3765BB",
"=. c #2072B1",
"-. c #2E75BB",
";. c #4A5C89",
":. c #495F97",
">. c #596082",
",. c #5A638D",
"<. c #616A95",
"1. c #646E9A",
"2. c #727D9D",
"3. c #4D6EBA",
"4. c #4F71BB",
"5. c #6A79A8",
"6. c #717DA2",
"7. c #1F59C5",
"8. c #2D64C4",
"9. c #2864CE",
"0. c #2B68CD",
"q. c #326CC5",
"w. c #3F6AC4",
"e. c #3064C3",
"r. c #3A71C6",
"t. c #3B73CA",
"y. c #3679CE",
"u. c #2F6FDD",
"i. c #3874D6",
"p. c #377EDE",
"a. c #436BC6",
"s. c #466EC9",
"d. c #476AC6",
"f. c #4A72CC",
"g. c #4676CC",
"h. c #417AD6",
"j. c #4A7CD3",
"k. c #4878D6",
"l. c #5173D0",
"z. c #537AD5",
"x. c #587ED7",
"c. c #567ED9",
"v. c #597EDA",
"b. c #417BE0",
"n. c #2380BE",
"m. c #7784A8",
"M. c #7582A4",
"N. c #7F8DB6",
"B. c #7487B8",
"V. c #3F80D3",
"C. c #3981DD",
"Z. c #378CDB",
"A. c #3A97D6",
"S. c #3F95DF",
"D. c #3B82E3",
"F. c #3D8EE9",
"G. c #4184DA",
"H. c #4C86DE",
"J. c #5085D5",
"K. c #5780DA",
"L. c #5B82DD",
"P. c #5C86D0",
"I. c #6A8DCE",
"U. c #638DD3",
"Y. c #7A9BD7",
"T. c #7293DB",
"R. c #4089EA",
"E. c #4B8BE7",
"W. c #4199E0",
"Q. c #4793ED",
"!. c #5798ED",
"~. c #4391F2",
"^. c #479AF3",
"/. c #668EEA",
"(. c #698EEA",
"). c #6388E2",
"_. c #6A91EC",
"`. c #6E99EF",
"'. c #6392E9",
"]. c #779AE3",
"[. c #6E97F0",
"{. c #679DF1",
"}. c #7396F3",
"|. c #779FFB",
" X c #4DA7E6",
".X c #4FA8E6",
"XX c #5BB1EE",
"oX c #5CA7F7",
"OX c #5DA8F9",
"+X c #6CA3F6",
"@X c #77A0FB",
"#X c #79A1FC",
"$X c #7CA2F0",
"%X c #74B1FF",
"&X c #9A9EAB",
"*X c #8493BC",
"=X c #9A9FB3",
"-X c #9DA3B7",
";X c #9FA5BB",
":X c #A5A6B4",
">X c #AAACB4",
",X c #A1A7BD",
"<X c #A3A8BC",
"1X c #ADB0BE",
"2X c #8B9AC5",
"3X c #819FDF",
"4X c #819BD3",
"5X c #92A4CE",
"6X c #9BADD7",
"7X c #AAAFC3",
"8X c #A2AAC6",
"9X c #AEB2C2",
"0X c #A6B1CD",
"qX c #B0B6C6",
"wX c #B3B8CB",
"eX c #ADB8D1",
"rX c #B7BCD1",
"tX c #85ACFC",
"yX c #88AEFF",
"uX c #8BB8F6",
"iX c #86B3FF",
"pX c #89B1FF",
"aX c #85B8FF",
"sX c #8ABBFF",
"dX c #95BEFF",
"fX c #9CBDFF",
"gX c #A4B7E0",
"hX c #BDC6DB",
"jX c #BBC1D6",
"kX c #94C2FE",
"lX c #9AC3FF",
"zX c #9CCDFF",
"xX c #B1C3E6",
"cX c #A3C9FF",
"vX c #ADCBFF",
"bX c #B0CCFF",
"nX c #BFD7FF",
"mX c #BBDBFF",
"MX c #C5CEE2",
"NX c #CAD1E3",
"BX c #C1D7FF",
"VX c #C2DAFF",
"CX c #C8DFFF",
"ZX c #CEE3FF",
"AX c #CCE8FF",
"SX c #D1E5FF",
"DX c #D3EDFF",
"FX c #DAECFF",
"GX c #DDF1FF",
"HX c #E4F7FF",
"JX c #EAF7FF",
"KX c #E9F9FF",
"LX c #F5F5F5",
"PX c #FBFAF6",
"IX c #FFFEFD",
"UX c None",
/* pixels */
"UXUXUXUXUXUXUXUXUXUXUXUXUXUXUXUXUXUXUXUXUXUXUXUXUXUXUXUXUXUXUXUX",
"UXUXUXUXUXUXUXUXUXUXUX1 U 4.I.Y.Y.I.3.U 1 UXUXUXUXUXUXUXUXUXUXUX",
"UXUXUXUXUXUXUXUXUXB U.vXDXHXKXJXKXKXHXDXvXU.m UXUXUXUXUXUXUXUXUX",
"UXUXUXUXUXUXUX6 U.mXGXFXSXZXZXZXZXZXSXSXFXGXmXP.3 UXUXUXUXUXUXUX",
"UXUXUXUXUXUXI kXAXCXnXnXnXnXnXnXnXnXBXBXBXBXCXAXuXA UXUXUXUXUXUX",
"UXUXUXUXUX` zXmXvXvXvXvXvXvXvXvXvXvXvXvXbXvXvXbXmXlXI UXUXUXUXUX",
"UXUXUXUXI kXvXfXfXfXfXfXfXfXfXfXfXfXfXfXfXfXfXfXfXcXsXS UXUXUXUX",
"UXUXUXp %XkXiXyXpXyXtX].].].tXyXyXtXT.T.T.$XpXpXpXpXdX+X5 UXUXUX",
"UXUXUXJ.sX@X|.@X@X|.Y.MXNXMX3X@X@XT.hXMXMX4X#X#X#X#X#XiXg.UXUXUX",
"UXUXS %X`././././.(.eXIXPXIXxX_._.B.IXPXIXNX_._._._._.[.+Xl UXUX",
"UXUXj.{.z.z.z.c.v.v.0XPXLXIXgXL.L.B.PXLXIXhXL.L.L.L.K.c.'.w.UXUX",
"UX7 !.k.w.a.a.s.s.f.8XPXLXIX6Xf.f.5.IXLXIXjXf.f.f.f.s.a.f.H.8 UX",
"UXY E. .{ |  .....X.8XPXLXIX5X%.%.5.IXLXIXrX%.%.X..... . .h.S UX",
"UX*.i.E J ~ ^ ( ) ) ;XPXLXIX2X{ { 1.IXLXIXwX' ' ' ( ( ^ ~ e.{ UX",
"UXt.0.H C J J E ~ ^ -XPXLXIX*X) ) 1.IXLXIXqX^ ^ ~ ~ E J Z [ #.UX",
"UXr.D w z V C H J J -XPXLXIX*X~ ~ <.IXLXIX9XE J J J Z C V Q 8.UX",
"UXr.e . O % 9 i z N -XPXLXIXN.J J <.IXLXIX9XH C V N z i 9 a } UX",
"UXr.F o X O + @ & - &XPXLXIXm.h h ,.IXLXIX>Xr 0 ; & $ O   : } UX",
"UX&._ # O @ $ % % & &XPXLXIX2.< < >.IXLXIX>X* & % $ @ + O s } UX",
"UX] q.= + % % & * - &XIXLXIX2., < >.IXLXIX:X- * & % % @ $ T ^ UX",
"UXn G.d $ % & * ; , =XIXLXIX6.2 2 >.IXLXIX:X, ; - * & $ > $.m UX",
"UXUXV.[ = & * ; , < =XIXLXIX6.y y ,.IXLXIX:X< , , - * & D q.UXUX",
"UXUX_ D.c * ; , < 2 ,XIXIXIXM.f f <.IXIXIX:X2 < , , * q q._ UXUX",
"UXUXUXG.8.t ; < 2 4 :.9X7X<XP f f b 7X9X1X;.y r < , 0 ( y.UXUXUX",
"UXUXUXK Q.! r < y y g v v b k k k k n v d u y y 2 r H C.G UXUXUX",
"UXUXUXUXO.~.Q g 4 y f f k V J ^ ^ ~ Z x g f f y f R p.+.UXUXUXUX",
"UXUXUXUXUX-.~.7.M y y x J ' X.%.%.%.| / V g y j Q D.$.UXUXUXUXUX",
"UXUXUXUXUXUX@.^.u.W V J | a.l.x.v.z.s.X./ C R 9.F.@.UXUXUXUXUXUX",
"UXUXUXUXUXUXUXL S.~.b.k.z.L.(.}.}._.).x.k.h.R.Z.L UXUXUXUXUXUXUX",
"UXUXUXUXUXUXUXUXUX=.W.OX%XaXkXcXcXlXsX%XoXS.o.UXUXUXUXUXUXUXUXUX",
"UXUXUXUXUXUXUXUXUXUXUXUXn.A. XXXXX.XA.n.UXUXUXUXUXUXUXUXUXUXUXUX",
"UXUXUXUXUXUXUXUXUXUXUXUXUXUXUXUXUXUXUXUXUXUXUXUXUXUXUXUXUXUXUXUX"
};
