/* XPM */
static char *xpm_play[] = {
/* columns rows colors chars-per-pixel */
"32 32 256 2",
"   c #000415",
".  c #00051E",
"X  c #000722",
"o  c #000A22",
"O  c #000A2B",
"+  c #000D34",
"@  c #000F3A",
"#  c #001135",
"$  c #00113E",
"%  c #001345",
"&  c #00144C",
"*  c #001654",
"=  c #031C54",
"-  c #001759",
";  c #00195C",
":  c #0F2754",
">  c #08225B",
",  c #001A63",
"<  c #001C6C",
"1  c #0B1574",
"2  c #001E72",
"3  c #0C1977",
"4  c #001F79",
"5  c #101A75",
"6  c #101E79",
"7  c #181E78",
"8  c #131774",
"9  c #052062",
"0  c #02206A",
"q  c #08276C",
"w  c #07286E",
"e  c #1A336C",
"r  c #012275",
"t  c #0A2670",
"y  c #072974",
"u  c #00227D",
"i  c #092B79",
"p  c #15207A",
"a  c #103172",
"s  c #183876",
"d  c #123379",
"f  c #3A4A76",
"g  c #3C4E7E",
"h  c #002581",
"j  c #052984",
"k  c #082B82",
"l  c #072F8E",
"z  c #092E8A",
"x  c #1C2F8B",
"c  c #0D3186",
"v  c #0D328B",
"b  c #103683",
"n  c #1A378A",
"m  c #093595",
"M  c #103690",
"N  c #1F3790",
"B  c #133995",
"V  c #1F3A95",
"C  c #153D9A",
"Z  c #1A3F9B",
"A  c #223A94",
"S  c #1D4084",
"D  c #1A428E",
"F  c #174794",
"G  c #15409D",
"H  c #1C429E",
"J  c #1A4A93",
"K  c #155A9D",
"L  c #2C498E",
"P  c #3D5085",
"I  c #3B528B",
"U  c #27449B",
"Y  c #2A459A",
"T  c #2A4A9D",
"R  c #24519C",
"E  c #1341A4",
"W  c #1E46A1",
"Q  c #1647AE",
"!  c #1B4EB4",
"~  c #1E52B5",
"^  c #2147A2",
"/  c #234AA4",
"(  c #284BA7",
")  c #254EA9",
"_  c #284FAA",
"`  c #2453A2",
"'  c #2F50A5",
"]  c #2B51AD",
"[  c #2C59AA",
"{  c #3859A6",
"}  c #3256AB",
"|  c #2557B3",
" . c #2C55B0",
".. c #2B5CB3",
"X. c #3356B2",
"o. c #325AB5",
"O. c #355DB9",
"+. c #395DB9",
"@. c #1E6FB1",
"#. c #2A68AE",
"$. c #2362AE",
"%. c #256CB2",
"&. c #2F62BE",
"*. c #2C6BBC",
"=. c #3C62BD",
"-. c #376BBE",
";. c #3765BB",
":. c #2072B1",
">. c #2E75BB",
",. c #465F9B",
"<. c #425992",
"1. c #4B639F",
"2. c #506393",
"3. c #6F7C9D",
"4. c #627195",
"5. c #4F68A4",
"6. c #5771AC",
"7. c #4D6EBA",
"8. c #4F71BB",
"9. c #607AB5",
"0. c #1F59C5",
"q. c #2D64C4",
"w. c #2864CE",
"e. c #2B68CD",
"r. c #3064C3",
"t. c #326CC5",
"y. c #3F6AC4",
"u. c #3A71C6",
"i. c #3B73CA",
"p. c #3679CE",
"a. c #2F6FDD",
"s. c #3874D6",
"d. c #377EDE",
"f. c #436BC6",
"g. c #466EC9",
"h. c #476AC6",
"j. c #4A72CD",
"k. c #4676CC",
"l. c #417AD6",
"z. c #4A7CD3",
"x. c #4878D6",
"c. c #5173D0",
"v. c #537AD5",
"b. c #587ED7",
"n. c #567ED9",
"m. c #597EDA",
"M. c #417BE0",
"N. c #2380BE",
"B. c #6882BD",
"V. c #3F80D3",
"C. c #3981DD",
"Z. c #378CDB",
"A. c #3A97D6",
"S. c #3F95DF",
"D. c #3B82E3",
"F. c #3D8EE9",
"G. c #4184DA",
"H. c #4C86DE",
"J. c #5085D5",
"K. c #5E84D3",
"L. c #5780DA",
"P. c #5B82DD",
"I. c #6180C7",
"U. c #6A8DCE",
"Y. c #738BC5",
"T. c #7690CA",
"R. c #638DD3",
"E. c #789BD7",
"W. c #4B8BE7",
"Q. c #4089EA",
"!. c #4199E0",
"~. c #4793ED",
"^. c #5798ED",
"/. c #4391F2",
"(. c #479AF3",
"). c #698FE7",
"_. c #668EEA",
"`. c #698EEA",
"'. c #6388E2",
"]. c #6A91EC",
"[. c #6E99EF",
"{. c #6392E9",
"}. c #6E97F0",
"|. c #679DF1",
" X c #7396F3",
".X c #779FFB",
"XX c #4DA7E6",
"oX c #4FA8E6",
"OX c #5BB1EE",
"+X c #5CA7F7",
"@X c #5DA8F9",
"#X c #6CA3F6",
"$X c #77A0FB",
"%X c #79A1FC",
"&X c #74B1FF",
"*X c #949AAB",
"=X c #8592B1",
"-X c #B5B6BC",
";X c #9CABCF",
":X c #86A1DC",
">X c #94ABDF",
",X c #9DAFD8",
"<X c #B3BFD9",
"1X c #85A3E6",
"2X c #87AFFF",
"3X c #89AEFF",
"4X c #85A8F3",
"5X c #8BB8F6",
"6X c #86B3FF",
"7X c #89B1FF",
"8X c #85B8FF",
"9X c #8ABBFF",
"0X c #95BEFF",
"qX c #9CBDFF",
"wX c #B8C2D8",
"eX c #94C2FE",
"rX c #9AC3FF",
"tX c #9CCDFF",
"yX c #A3C9FF",
"uX c #ADCBFF",
"iX c #B0CCFF",
"pX c #BFD7FF",
"aX c #BBDBFF",
"sX c #C1C4CE",
"dX c #C2C2C5",
"fX c #C2C6D2",
"gX c #C5C9D4",
"hX c #C7CCD8",
"jX c #C8CDD8",
"kX c #CED2DB",
"lX c #D3D2D1",
"zX c #E0DFDD",
"xX c #C1CAE0",
"cX c #CBD2E3",
"vX c #C1D7FF",
"bX c #C2DAFF",
"nX c #C8DFFF",
"mX c #CEE3FF",
"MX c #CCE8FF",
"NX c #D1E5FF",
"BX c #D3EDFF",
"VX c #DAECFF",
"CX c #DDF1FF",
"ZX c #E7E6E6",
"AX c #EBE8E4",
"SX c #E4E7EE",
"DX c #EDECEC",
"FX c #F0EFEF",
"GX c #F4F2EF",
"HX c #E4F7FF",
"JX c #EAF7FF",
"KX c #E9F9FF",
"LX c #F4F4F3",
"PX c #FCFAF6",
"IX c #FDFDFC",
"UX c None",
/* pixels */
"UXUXUXUXUXUXUXUXUXUXUXUXUXUXUXUXUXUXUXUXUXUXUXUXUXUXUXUXUXUXUXUX",
"UXUXUXUXUXUXUXUXUXUXUXUX1 Y 8.U.E.E.U.7.Y 1 UXUXUXUXUXUXUXUXUXUX",
"UXUXUXUXUXUXUXUXUXUXN R.uXBXHXKXJXKXKXHXBXuXR.x UXUXUXUXUXUXUXUX",
"UXUXUXUXUXUXUXUX6 R.aXCXVXNXmXmXmXmXmXNXNXVXCXaXK.3 UXUXUXUXUXUX",
"UXUXUXUXUXUXUXU eXMXnXpXpXpXpXpXpXpXpXvXvXvXvXnXMX5XV UXUXUXUXUX",
"UXUXUXUXUXUX' tXaXuXuXuXuXuXuXuXuXuXuXuXuXiXuXuXiXaXrXU UXUXUXUX",
"UXUXUXUXUXU eXuXqXqXqXqXqXqXqXqXqXqXqXqXqXqXqXqXqXqXyX9XA UXUXUX",
"UXUXUXUXp &XeX6X2X7X2X4X>X<X1X2X3X3X3X3X3X3X7X7X7X7X7X0X#X5 UXUX",
"UXUXUXUXJ.9X%X.X$X$X.XT.kXGXDX:X$X$X$X%X%X%X%X%X%X%X%X%X6Xk.UXUX",
"UXUXUXA &X[._._._._.`.Y.jXZXDXLX,X).].].].].].].].].].].}.#Xx UX",
"UXUXUXz.|.v.v.v.n.m.m.B.hXZXZXDXPXxXK.P.P.P.P.P.P.P.P.L.n.{.y.UX",
"UXUX7 ^.x.y.f.f.g.g.j.9.hXZXZXDXFXIXSXI.j.j.j.j.j.j.j.g.f.j.H.8 ",
"UXUXT W.o. .X.o.O.O.+.6.gXZXZXDXDXLXIXIXY.=.=.=.=.+.O.O.o.o.l.A ",
"UXUX;.s.W H ^ / ) _ _ 5.gXZXZXDXDXLXPXIXIX;X} ] ] ] ) ) / ^ r. .",
"UXUXi.e.G C H H W ^ / 1.gXZXZXDXDXLXPXIXIXIXcX} / ^ ^ W H Z | &.",
"UXUXu.D w c B C G H H 1.gXZXZXDXDXLXPXIXIXIXIXwX{ H G Z C B ! q.",
"UXUXu.e   O % 9 i v M ,.gXZXZXDXDXLXPXIXIXIXIX=XT B M v i 9 a ..",
"UXUXu.S o X O + @ & - P fXZXZXDXDXLXPXIXIXGX3.i 0 ; & $ O . : ..",
"UXUX-.` # O @ $ % % & f sXZXZXDXDXLXPXIXzXf ; * & % $ @ + O s ..",
"UXUX[ t.= + % % & * - f sXZXZXDXDXLXIXdXe , ; - * & % % @ $ R / ",
"UXUXn G.d $ % & * ; , g sXZXZXDXLXPX*Xt < < , , ; - * & $ > *.n ",
"UXUXUXV.| = & * ; , < P fXZXZXLXAX4.u u 4 2 < < , , - * & D t.UX",
"UXUXUX` D.b * ; , < 2 I fXZXGXlXI h h u u u r 2 < , , * q t.` UX",
"UXUXUXUXG.q.y ; < 2 4 <.fXAX-Xn h h h h h h u u r < , 0 ) p.UXUX",
"UXUXUXUXJ ~.~ r < r u k L 2.c j z z z j h h h u u 2 r G C.F UXUX",
"UXUXUXUXUX#./.! j 4 u h h z B H / / ^ Z v j h h u h E d.$.UXUXUX",
"UXUXUXUXUXUX>./.0.m u u v H ] +.=.=.=.X.( B j u l ! D.*.UXUXUXUX",
"UXUXUXUXUXUXUX%.(.a.Q B H X.f.c.b.m.v.g.+.( C E w.F.%.UXUXUXUXUX",
"UXUXUXUXUXUXUXUXK S./.M.x.v.P.`. X X].'.b.x.l.Q.Z.K UXUXUXUXUXUX",
"UXUXUXUXUXUXUXUXUXUX:.!.@X&X8XeXyXyXrX9X&X+XS.@.UXUXUXUXUXUXUXUX",
"UXUXUXUXUXUXUXUXUXUXUXUXUXN.A.XXOXOXoXA.N.UXUXUXUXUXUXUXUXUXUXUX",
"UXUXUXUXUXUXUXUXUXUXUXUXUXUXUXUXUXUXUXUXUXUXUXUXUXUXUXUXUXUXUXUX"
};
