/* XPM */
static char * xpm_loop[] = {
"32 32 510 2",
"  	c None",
". 	c #0B1574",
"+ 	c #2A459A",
"@ 	c #4F71BB",
"# 	c #6A8DCE",
"$ 	c #789BD7",
"% 	c #4D6EBA",
"& 	c #1F3790",
"* 	c #638DD3",
"= 	c #ADCBFF",
"- 	c #D3EDFF",
"; 	c #E4F7FF",
"> 	c #E9F9FF",
", 	c #EAF7FF",
"' 	c #1C2F8B",
") 	c #101E78",
"! 	c #BBDBFF",
"~ 	c #DCF0FE",
"{ 	c #DAEFD2",
"] 	c #D6EBBE",
"^ 	c #D6E9C3",
"/ 	c #D9E9C4",
"( 	c #D5E9C3",
"_ 	c #D5EAC0",
": 	c #D5EACA",
"< 	c #D1E5FF",
"[ 	c #DAECFF",
"} 	c #DDF1FF",
"| 	c #5E84D3",
"1 	c #0C1977",
"2 	c #264399",
"3 	c #94C2FE",
"4 	c #CCE8FD",
"5 	c #C7DFFB",
"6 	c #BFD7FF",
"7 	c #DAF43D",
"8 	c #EBFF0B",
"9 	c #F7FF0F",
"0 	c #FCFF11",
"a 	c #F1FF0F",
"b 	c #EBFF0F",
"c 	c #E1F51C",
"d 	c #B4C7E0",
"e 	c #C1DAE8",
"f 	c #C0D9E9",
"g 	c #C8DFFF",
"h 	c #CCE8FF",
"i 	c #8BB8F6",
"j 	c #1F3A95",
"k 	c #2E4FA0",
"l 	c #97C7F8",
"m 	c #B9D8BF",
"n 	c #DEF823",
"o 	c #DEEE2B",
"p 	c #F0F810",
"q 	c #FCFF0F",
"r 	c #F7FF11",
"s 	c #F6FE0F",
"t 	c #DBE925",
"u 	c #DFF91F",
"v 	c #B2D575",
"w 	c #AAC7FA",
"x 	c #B0CCFF",
"y 	c #BBDBFA",
"z 	c #9AC3FF",
"A 	c #27449B",
"B 	c #93C1FD",
"C 	c #ABC9FD",
"D 	c #B1D1B0",
"E 	c #D4EF42",
"F 	c #939809",
"G 	c #6F7307",
"H 	c #646606",
"I 	c #707115",
"J 	c #676815",
"K 	c #CDD410",
"L 	c #D9E615",
"M 	c #B1CD81",
"N 	c #9CBDFF",
"O 	c #9ABBFD",
"P 	c #C1DDA1",
"Q 	c #B4D69D",
"R 	c #223A94",
"S 	c #15207A",
"T 	c #74B1FF",
"U 	c #86B3FF",
"V 	c #C3E157",
"W 	c #EBFF0D",
"X 	c #F5FD0F",
"Y 	c #55570C",
"Z 	c #CDCECB",
"` 	c #E2E4D1",
" .	c #485692",
"..	c #556DB2",
"+.	c #576DB3",
"@.	c #8C9E5B",
"#.	c #C7CD16",
"$.	c #BCBE17",
"%.	c #B9BC0D",
"&.	c #F1F411",
"*.	c #E1E918",
"=.	c #9AB7B8",
"-.	c #89B1FF",
";.	c #CBDE4B",
">.	c #CBD928",
",.	c #6598E9",
"'.	c #101A75",
").	c #5085D5",
"!.	c #8ABBFF",
"~.	c #79A1FB",
"{.	c #779FFB",
"].	c #C2D95D",
"^.	c #D6D913",
"/.	c #0B0C29",
"(.	c #E8EAEE",
"_.	c #F9F9F7",
":.	c #EDECEC",
"<.	c #86A1DC",
"[.	c #77A0FB",
"}.	c #7097EF",
"|.	c #252F6D",
"1.	c #242E6C",
"2.	c #283373",
"3.	c #BCC025",
"4.	c #84A7E0",
"5.	c #BCD051",
"6.	c #B0BA18",
"7.	c #779EE7",
"8.	c #4676CC",
"9.	c #6F9AEC",
"0.	c #77A1C0",
"a.	c #CFE344",
"b.	c #B3B512",
"c.	c #171624",
"d.	c #404C83",
"e.	c #C8CDD8",
"f.	c #E7E6E6",
"g.	c #F4F4F3",
"h.	c #9CAED7",
"i.	c #698FE7",
"j.	c #6A91EC",
"k.	c #546FB1",
"l.	c #98991A",
"m.	c #E0E622",
"n.	c #A2AB1B",
"o.	c #6287DB",
"p.	c #6CA3F6",
"q.	c #4A7CD3",
"r.	c #679DF1",
"s.	c #537AD5",
"t.	c #557BC4",
"u.	c #E9F218",
"v.	c #A2A714",
"w.	c #3C54A2",
"x.	c #6882BD",
"y.	c #C7CCD8",
"z.	c #FCFAF6",
"A.	c #C1CAE0",
"B.	c #5B82DD",
"C.	c #627CA2",
"D.	c #949612",
"E.	c #9FA81B",
"F.	c #4D71C8",
"G.	c #6392E9",
"H.	c #3F6AC4",
"I.	c #181E78",
"J.	c #5798ED",
"K.	c #4878D6",
"L.	c #456FBD",
"M.	c #759492",
"N.	c #EAED13",
"O.	c #E2EA0E",
"P.	c #6D7314",
"Q.	c #3A58AB",
"R.	c #607AB5",
"S.	c #C6CBD7",
"T.	c #F0EFEF",
"U.	c #FDFDFC",
"V.	c #E4E7EE",
"W.	c #6180C7",
"X.	c #4971CC",
"Y.	c #4A72CD",
"Z.	c #4B6288",
"`.	c #A2A80D",
" +	c #3C60B7",
".+	c #4C86DE",
"++	c #131774",
"@+	c #2A4A9D",
"#+	c #4B8BE7",
"$+	c #325AB5",
"%+	c #5C7F88",
"&+	c #55570D",
"*+	c #121C5A",
"=+	c #304FA4",
"-+	c #5771AC",
";+	c #C5C9D4",
">+	c #FBFCFA",
",+	c #768EBF",
"'+	c #4267B6",
")+	c #3C62BD",
"!+	c #6A8893",
"~+	c #A6A815",
"{+	c #2D51A8",
"]+	c #417AD6",
"^+	c #3765BB",
"/+	c #3874D6",
"(+	c #20489E",
"_+	c #6A8966",
":+	c #5F611A",
"<+	c #284FAA",
"[+	c #4E67A3",
"}+	c #FBFDE3",
"|+	c #F0F2C8",
"1+	c #AAB68D",
"2+	c #E9EF1D",
"3+	c #F0F415",
"4+	c #B1B317",
"5+	c #1F4299",
"6+	c #2147A2",
"7+	c #3064C3",
"8+	c #2C55B0",
"9+	c #3B73CA",
"0+	c #2B68CD",
"a+	c #17429A",
"b+	c #35587A",
"c+	c #6F7423",
"d+	c #737416",
"e+	c #29292D",
"f+	c #1F449E",
"g+	c #234AA4",
"h+	c #4B639F",
"i+	c #FCFDEF",
"j+	c #717086",
"k+	c #18162F",
"l+	c #58572B",
"m+	c #767718",
"n+	c #6A6C0F",
"o+	c #6A6C10",
"p+	c #727410",
"q+	c #484729",
"r+	c #193B93",
"s+	c #1A3F9B",
"t+	c #2557B3",
"u+	c #2F62BE",
"v+	c #3A71C6",
"w+	c #1A428D",
"x+	c #07286E",
"y+	c #0C2F82",
"z+	c #0F2C7F",
"A+	c #0E2674",
"B+	c #0F2D7D",
"C+	c #1B419C",
"D+	c #1C429E",
"E+	c #E7E6E5",
"F+	c #FBFAF5",
"G+	c #C6C5CF",
"H+	c #9998AB",
"I+	c #9F9EB1",
"J+	c #74799A",
"K+	c #121D3E",
"L+	c #0C1E52",
"M+	c #061335",
"N+	c #122B7A",
"O+	c #143B95",
"P+	c #133995",
"Q+	c #1B4EB4",
"R+	c #2D64C4",
"S+	c #1A336C",
"T+	c #040814",
"U+	c #091329",
"V+	c #091C42",
"W+	c #0E285E",
"X+	c #123374",
"Y+	c #163A86",
"Z+	c #193D8B",
"`+	c #4D6595",
" @	c #C5C9D2",
".@	c #FCFCFB",
"+@	c #8592AF",
"@@	c #325197",
"#@	c #1C408F",
"$@	c #13398E",
"%@	c #0D328B",
"&@	c #092B79",
"*@	c #041F61",
"=@	c #103172",
"-@	c #2B5CB3",
";@	c #1D4084",
">@	c #6D741A",
",@	c #EBEE13",
"'@	c #DCE016",
")@	c #D8DB12",
"!@	c #E3E715",
"~@	c #EDF117",
"{@	c #EAEE15",
"]@	c #F1F517",
"^@	c #CED2A8",
"/@	c #F4F2EF",
"(@	c #6F7C9D",
"_@	c #355265",
":@	c #DDE31B",
"<@	c #546136",
"[@	c #00113E",
"}@	c #000A2B",
"|@	c #00051E",
"1@	c #0F2754",
"2@	c #2B5BB1",
"3@	c #376BBE",
"4@	c #2453A2",
"5@	c #868F21",
"6@	c #F3F560",
"7@	c #DEE183",
"8@	c #79810C",
"9@	c #969F46",
"0@	c #C7CAB9",
"a@	c #E0DFDD",
"b@	c #3A4A75",
"c@	c #00195C",
"d@	c #293C48",
"e@	c #6E7120",
"f@	c #000F3A",
"g@	c #000D34",
"h@	c #183876",
"i@	c #2A5AAF",
"j@	c #2C59AA",
"k@	c #326CC5",
"l@	c #7F8D32",
"m@	c #E5E76F",
"n@	c #090E0F",
"o@	c #000C3C",
"p@	c #3A4A76",
"q@	c #C1C4CE",
"r@	c #C2C2C5",
"s@	c #001962",
"t@	c #112956",
"u@	c #748237",
"v@	c #E4E627",
"w@	c #9FA065",
"x@	c #001345",
"y@	c #24519C",
"z@	c #2249A2",
"A@	c #1A378A",
"B@	c #4184DA",
"C@	c #899B43",
"D@	c #FBFE1B",
"E@	c #FBFE12",
"F@	c #A8AF21",
"G@	c #001A63",
"H@	c #465C71",
"I@	c #C0C4C9",
"J@	c #949AAB",
"K@	c #0A2670",
"L@	c #001B6B",
"M@	c #001C6C",
"N@	c #839138",
"O@	c #F6F911",
"P@	c #F8F8E0",
"Q@	c #CACCD7",
"R@	c #01144B",
"S@	c #08225B",
"T@	c #2C6BBC",
"U@	c #3F80D3",
"V@	c #9DB558",
"W@	c #FAFC35",
"X@	c #F7F6D9",
"Y@	c #FCFF33",
"Z@	c #BDC322",
"`@	c #394B7E",
" #	c #B6BAC6",
".#	c #EDECEB",
"+#	c #EBE8E4",
"@#	c #627195",
"##	c #00227D",
"$#	c #001F79",
"%#	c #96AA34",
"&#	c #E7E7C9",
"*#	c #001759",
"=#	c #001654",
"-#	c #00144C",
";#	c #1A428E",
">#	c #B0CD6D",
",#	c #F7FD35",
"'#	c #818894",
")#	c #F1F4B3",
"!#	c #FAFD3D",
"~#	c #A8AE2F",
"{#	c #D0D3D2",
"]#	c #F6F5F3",
"^#	c #D3D2D1",
"/#	c #3B528B",
"(#	c #002581",
"_#	c #092C77",
":#	c #8C9D40",
"<#	c #F0F413",
"[#	c #F9FC20",
"}#	c #F5F69A",
"|#	c #848A9A",
"1#	c #08276C",
"2#	c #B5D066",
"3#	c #F8FB22",
"4#	c #485865",
"5#	c #64739A",
"6#	c #F3F586",
"7#	c #FCFF3E",
"8#	c #F6F843",
"9#	c #E4E4E4",
"0#	c #F7F6F0",
"a#	c #C1C29E",
"b#	c #5B7166",
"c#	c #496460",
"d#	c #486360",
"e#	c #446161",
"f#	c #69844E",
"g#	c #FCFF1C",
"h#	c #FAFF77",
"i#	c #989FB7",
"j#	c #001967",
"k#	c #011A62",
"l#	c #02206A",
"m#	c #254EA9",
"n#	c #3679CE",
"o#	c #93AB4D",
"p#	c #D2D520",
"q#	c #14276C",
"r#	c #012275",
"s#	c #29405D",
"t#	c #A2A5A3",
"u#	c #FCFCEC",
"v#	c #FBFE25",
"w#	c #F9F9D3",
"x#	c #E2E575",
"y#	c #FBFE1C",
"z#	c #DBE358",
"A#	c #0E1944",
"B#	c #001E76",
"C#	c #001E72",
"D#	c #012174",
"E#	c #15409D",
"F#	c #3981DD",
"G#	c #174794",
"H#	c #24314A",
"I#	c #2958A6",
"J#	c #082C7F",
"K#	c #011A6B",
"L#	c #7F90BD",
"M#	c #CECFBF",
"N#	c #FCFF35",
"O#	c #FCFF1A",
"P#	c #FBFBD6",
"Q#	c #D9E5B1",
"R#	c #212E37",
"S#	c #001F74",
"T#	c #00217C",
"U#	c #1341A4",
"V#	c #377EDE",
"W#	c #2362AE",
"X#	c #2D74B9",
"Y#	c #4391F2",
"Z#	c #1F59C5",
"`#	c #083494",
" $	c #A5AD7D",
".$	c #FDFF9A",
"+$	c #F1F295",
"@$	c #E5E688",
"#$	c #FDFFA0",
"$$	c #FDFF9C",
"%$	c #AAAB5C",
"&$	c #44548F",
"*$	c #123894",
"=$	c #052372",
"-$	c #072F8E",
";$	c #3B82E3",
">$	c #256CB2",
",$	c #479AF3",
"'$	c #2F6FDD",
")$	c #1647AE",
"!$	c #1B3F9A",
"~$	c #274294",
"{$	c #3452A4",
"]$	c #3F59AC",
"^$	c #4561B2",
"/$	c #4561B4",
"($	c #415EB0",
"_$	c #3553A5",
":$	c #3456AF",
"<$	c #284BA7",
"[$	c #143C97",
"}$	c #2864CE",
"|$	c #3D8EE9",
"1$	c #155A9D",
"2$	c #3F95DF",
"3$	c #407ADF",
"4$	c #698EEA",
"5$	c #7396F3",
"6$	c #6388E2",
"7$	c #587ED7",
"8$	c #4089EA",
"9$	c #378CDB",
"0$	c #2072B1",
"a$	c #4199E0",
"b$	c #5DA8F9",
"c$	c #85B8FF",
"d$	c #A3C9FF",
"e$	c #5CA7F7",
"f$	c #1E6FB1",
"g$	c #2380BE",
"h$	c #3A97D6",
"i$	c #4DA7E6",
"j$	c #5BB1EE",
"k$	c #4FA8E6",
"                                                                ",
"                        . + @ # $ $ # % + .                     ",
"                    & * = - ; > , > > ; - = * '                 ",
"                ) * ! ~ { ] ^ / ^ ( _ : < [ } ! | 1             ",
"              2 3 4 5 6 7 8 9 0 a a b c d e f g h i j           ",
"            k l ! m n o p q r 0 r r r s t u v w x y z A         ",
"          A B C D E b 9 F G H I J K q 0 9 a L M N O P Q R       ",
"        S T 3 U V W X Y Z `  ...+.@.#.$.%.&.q *.=.-.;.>.,.'.    ",
"        ).!.~.{.].9 ^./.(._.:.<.[.}.|.1.2.3.0 0 0 4.5.6.7.8.    ",
"      R T 9.0.a.r b.c.d.e.f.:.g.h.i.j.j.j.k.l.0 0 m.9 n.o.p.'   ",
"      q.r.s.t.u.9 v.w.x.y.f.f.:.z.A.| B.B.B.C.D.0 0 9 E.F.G.H.  ",
"    I.J.K.L.M.N.O.P.Q.R.S.f.f.:.T.U.V.W.X.Y.Y.Z.0 0 9 `. +Y..+++",
"    @+#+$+%+9 0 &+*+=+-+;+f.f.:.:.g.U.>+,+'+)+!+0 0 0 ~+{+$+]+R ",
"    ^+/+(+_+0 0 :+<+<+[+;+f.f.:.:.g.z.}+|+1+2+3+0 0 0 4+5+6+7+8+",
"    9+0+a+b+c+d+e+f+g+h+;+f.f.:.:.g.z.i+j+k+l+m+n+o+p+q+r+s+t+u+",
"    v+w+x+y+z+A+B+C+D+h+;+E+f.:.:.g.F+U.G+H+I+J+K+L+M+N+O+P+Q+R+",
"    v+S+T+U+V+W+X+Y+Z+`+ @f.f.:.:.g.z..@U.U.U.+@@@#@$@%@&@*@=@-@",
"    v+;@>@,@'@)@!@~@{@]@^@f.f.:.:.g.z.U.U./@(@_@:@{@<@[@}@|@1@2@",
"    3@4@5@0 0 0 6@7@8@9@0@f.f.:.:.g.z.U.a@b@c@d@0 0 e@f@g@}@h@i@",
"    j@k@l@0 0 0 m@n@o@p@q@E+f.:.:.g.U.r@S+s@t@u@0 v@w@x@f@[@y@z@",
"    A@B@C@0 D@E@0 F@G@H@I@f.f.:.g.z.J@K@L@M@N@0 O@P@Q@R@[@S@T@A@",
"      U@V@W@X@Y@0 0 Z@`@ #.#:.g.+#@#####$#%#s 0 0 &#*#=#-#;#k@  ",
"      4@>#,#'#)#!#0 0 ~#{#T.]#^#/#(#(#_#:#<#r [#}#|#G@=#1#k@4@  ",
"        2#3#4#5#6#7#8#0 9#0#a#b#c#d#e#f#0 0 g#h#i#j#k#l#m#n#    ",
"        o#p#q#r#s#t#u#v#w#x#0 0 0 0 0 0 y#0 z#A#B#C#D#E#F#G#    ",
"          H#I#Q+J#K#L#M#N#0 0 0 0 0 0 O#P#Q#R#S#T#(#U#V#W#      ",
"            X#Y#Z#`##### $.$+$@$#$#$$$%$&$*$=$T#-$Q+;$T@        ",
"              >$,$'$)$P+!$~${$]$^$/$($_$:$<$[$U#}$|$>$          ",
"                1$2$Y#3$K.s.B.4$5$5$j.6$7$K.]+8$9$1$            ",
"                    0$a$b$T c$3 d$d$z !.T e$2$f$                ",
"                          g$h$i$j$j$k$h$g$                      ",
"                                                                "};
