/* XPM */
static const char *xpm_stop[] = {
/* columns rows colors chars-per-pixel */
"32 32 244 2",
"   c #000415",
".  c #00051E",
"X  c #000722",
"o  c #000A22",
"O  c #000A2B",
"+  c #000D34",
"@  c #000F39",
"#  c #001135",
"$  c #00113E",
"%  c #000D43",
"&  c #000F4D",
"*  c #001345",
"=  c #00144C",
"-  c #001554",
";  c #041E52",
":  c #00145D",
">  c #00195C",
",  c #0F2754",
"<  c #08225B",
"1  c #001564",
"2  c #001A63",
"3  c #001D6E",
"4  c #0B1574",
"5  c #001E71",
"6  c #0C1977",
"7  c #001E7C",
"8  c #131774",
"9  c #101A75",
"0  c #101E79",
"q  c #181E78",
"w  c #052062",
"e  c #02206A",
"r  c #08276C",
"t  c #07286E",
"y  c #142D66",
"u  c #16326D",
"i  c #022375",
"p  c #072974",
"a  c #00227E",
"s  c #07287E",
"d  c #092C79",
"f  c #15207A",
"g  c #123274",
"h  c #183876",
"j  c #13337A",
"k  c #1B387D",
"l  c #24396A",
"z  c #243B74",
"x  c #243E7D",
"c  c #022481",
"v  c #042883",
"b  c #072F8E",
"n  c #092E8A",
"m  c #1C2F8B",
"M  c #0D3187",
"N  c #0D328C",
"B  c #103683",
"V  c #17358A",
"C  c #1C328D",
"Z  c #1A3A89",
"A  c #093595",
"S  c #103690",
"D  c #1F3790",
"F  c #143A96",
"G  c #1F3A95",
"H  c #143D9B",
"J  c #1A3F9B",
"K  c #233F82",
"L  c #223A94",
"P  c #1D4084",
"I  c #1A428E",
"U  c #174794",
"Y  c #1A4A93",
"T  c #14419E",
"R  c #1C439E",
"E  c #155A9D",
"W  c #27449B",
"Q  c #2A459A",
"!  c #2B489E",
"~  c #24519C",
"^  c #33529B",
"/  c #1341A4",
"(  c #1E47A3",
")  c #1647AE",
"_  c #1B4EB4",
"`  c #1E52B5",
"'  c #2246A2",
"]  c #234AA4",
"[  c #2A4DA5",
"{  c #234FAA",
"}  c #2453A2",
"|  c #2F50A5",
" . c #2B51AD",
".. c #2C59AA",
"X. c #3153A6",
"o. c #3659AC",
"O. c #3B5CAA",
"+. c #2557B3",
"@. c #2C55B1",
"#. c #2B5CB3",
"$. c #3356B2",
"%. c #325AB5",
"&. c #3C5FB2",
"*. c #345DB9",
"=. c #395DB9",
"-. c #1E6FB1",
";. c #2362AE",
":. c #2A68AE",
">. c #256CB2",
",. c #2F62BE",
"<. c #2C6BBC",
"1. c #3765BB",
"2. c #3E62BE",
"3. c #376BBE",
"4. c #2072B1",
"5. c #2E75BB",
"6. c #4F68A5",
"7. c #4061AE",
"8. c #546CA7",
"9. c #4667B4",
"0. c #4B6DBD",
"q. c #4F71BB",
"w. c #6279B1",
"e. c #1F59C5",
"r. c #2D64C4",
"t. c #2864CE",
"y. c #2B68CD",
"u. c #3064C3",
"i. c #3E66C4",
"p. c #326CC5",
"a. c #3F6AC4",
"s. c #3A71C6",
"d. c #3B73CA",
"f. c #3679CE",
"g. c #2F6FDD",
"h. c #3874D6",
"j. c #377EDE",
"k. c #4367C3",
"l. c #436BC6",
"z. c #466EC9",
"x. c #4A6CCA",
"c. c #4676CC",
"v. c #4971CC",
"b. c #5273C0",
"n. c #577BCD",
"m. c #4775D2",
"M. c #4E77D3",
"N. c #417AD6",
"B. c #4A7CD3",
"V. c #457BDC",
"C. c #5173D0",
"Z. c #537AD5",
"A. c #587ED7",
"S. c #557ED9",
"D. c #5A7DD9",
"F. c #417BE0",
"G. c #2380BE",
"H. c #3F80D3",
"J. c #3981DD",
"K. c #378CDB",
"L. c #3A97D6",
"P. c #3F95DF",
"I. c #3B82E3",
"U. c #3D8EE9",
"Y. c #4184DA",
"T. c #4C86DE",
"R. c #5085D5",
"E. c #5C86D0",
"W. c #5780DA",
"Q. c #5B81DC",
"!. c #6080CE",
"~. c #6A8DCE",
"^. c #7E95CD",
"/. c #638DD3",
"(. c #6588DA",
"). c #6D8EDB",
"_. c #789BD7",
"`. c #4B8BE7",
"'. c #4089EA",
"]. c #5E86E4",
"[. c #4199E0",
"{. c #4793ED",
"}. c #5798ED",
"|. c #4391F2",
" X c #479AF3",
".X c #6388E2",
"XX c #668EEA",
"oX c #6A8DE8",
"OX c #6E90E3",
"+X c #6392E9",
"@X c #6A91EC",
"#X c #6E99EF",
"$X c #7394E1",
"%X c #7095ED",
"&X c #6E97F0",
"*X c #679DF1",
"=X c #7396F3",
"-X c #7399F3",
";X c #769FFB",
":X c #4DA7E6",
">X c #4FA8E6",
",X c #5BB1EE",
"<X c #5CA7F7",
"1X c #5DA8F9",
"2X c #6CA3F6",
"3X c #7DA5FE",
"4X c #7FA8FF",
"5X c #74B1FF",
"6X c #8397C9",
"7X c #8498CA",
"8X c #80A7FF",
"9X c #82AAFE",
"0X c #8BB8F6",
"qX c #86B3FF",
"wX c #8AB2FF",
"eX c #85B8FF",
"rX c #8ABBFF",
"tX c #95BEFF",
"yX c #9CBDFF",
"uX c #94C2FE",
"iX c #9AC3FF",
"pX c #9CCDFF",
"aX c #A3C9FF",
"sX c #ADCBFF",
"dX c #B0CCFF",
"fX c #BFD7FF",
"gX c #BBDBFF",
"hX c #C1D7FF",
"jX c #C2DAFF",
"kX c #C8DFFF",
"lX c #CEE3FF",
"zX c #CCE8FF",
"xX c #D1E5FF",
"cX c #D3EDFF",
"vX c #DAECFF",
"bX c #DDF1FF",
"nX c #E4F7FF",
"mX c #EAF7FF",
"MX c #E9F9FF",
"NX c #F3F2F0",
"BX c #F8F6F2",
"VX c #FEFCF6",
"CX c #FFFFFF",
"ZX c None",
/* pixels */
"ZXZXZXZXZXZXZXZXZXZXZXZXZXZXZXZXZXZXZXZXZXZXZXZXZXZXZXZXZXZXZXZX",
"ZXZXZXZXZXZXZXZXZXZXZX4 Q q.~._._.~.0.Q 4 ZXZXZXZXZXZXZXZXZXZXZX",
"ZXZXZXZXZXZXZXZXZXD /.sXcXnXMXmXMXMXnXcXsX/.C ZXZXZXZXZXZXZXZXZX",
"ZXZXZXZXZXZXZX0 /.gXbXvXxXlXlXlXlXlXxXxXvXbXgXE.6 ZXZXZXZXZXZXZX",
"ZXZXZXZXZXZXW uXzXkXfXfXfXfXfXfXfXfXhXhXhXhXkXzX0XG ZXZXZXZXZXZX",
"ZXZXZXZXZX| pXgXsXsXsXsXsXsXsXsXsXsXsXsXdXsXsXdXgXiXW ZXZXZXZXZX",
"ZXZXZXZXW uXsXyXyXyXyXyXyXyXyXyXyXyXyXyXyXyXyXyXyXaXrXL ZXZXZXZX",
"ZXZXZXf 5XuXqX9X8X3X3X3X3X4X4X4X4X4X8X8X4X4X4X9XwXwXtX2X9 ZXZXZX",
"ZXZXZXR.rX3X;X-X%X^.6X6X6X6X7X7X7X7X7X7X7X6X^.-X3X3X3XqXc.ZXZXZX",
"ZXZXL 5X#XXXXX].$XBXVXVXVXVXVXVXVXVXVXVXVXVXNXOX@X@X@X&X2Xm ZXZX",
"ZXZXB.*XS.Z.Z.M.).CXCXCXCXCXCXCXCXCXCXCXCXCXCX(.Q.Q.W.S.+Xa.ZXZX",
"ZXq }.M.i.l.l.i.!.CXCXCXCXCXCXCXCXCXCXCXCXCXCXn.v.v.z.l.v.T.8 ZX",
"ZX! `.*.@.%.%.@.b.CXCXCXCXCXCXCXCXCXCXCXCXCXCX0.=.*.*.%.%.N.L ZX",
"ZX1.h.( R ' ] ( 9.CXCXCXCXCXCXCXCXCXCXCXCXCXCX&. .{ ] ] ' u.@.ZX",
"ZXd.y.T H R R J 7.CXCXCXCXCXCXCXCXCXCXCXCXCXCXo.' ' ( R J +.,.ZX",
"ZXs.I t M F H F O.CXCXCXCXCXCXCXCXCXCXCXCXCXCXX.R R J H F _ r.ZX",
"ZXs.u   O * w s ^ CXCXCXCXCXCXCXCXCXCXCXCXCXCX[ F S M d w g #.ZX",
"ZXs.P o X O + % l CXCXCXCXCXCXCXCXCXCXCXCXCXCXk > = $ O . , #.ZX",
"ZX3.} # O @ $ % l CXCXCXCXCXCXCXCXCXCXCXCXCXVXy * $ @ + O h #.ZX",
"ZX..p.; + * * & z CXCXCXCXCXCXCXCXCXCXCXCXCXVXy = * * @ $ ~ ] ZX",
"ZXZ Y.j $ * = - z CXCXCXCXCXCXCXCXCXCXCXCXCXVXu > - = $ < <.V ZX",
"ZXZXH.+.; = - : x CXCXCXCXCXCXCXCXCXCXCXCXCXVXg 2 > - = I p.ZXZX",
"ZXZX} I.B - > 1 K CXCXCXCXCXCXCXCXCXCXCXCXCXCXj 2 2 - r p.} ZXZX",
"ZXZXZXY.r.p > 3 i 8.w.w.w.w.w.w.w.w.w.w.w.w.6.i 3 2 e { f.ZXZXZX",
"ZXZXZXY {.` i 5 i 7 7 7 7 a c c c c c a 7 7 7 a 5 i T J.U ZXZXZX",
"ZXZXZXZX:.|._ v 7 a c c n F R ] ] ' J N v c c a c / j.;.ZXZXZXZX",
"ZXZXZXZXZX5.|.e.A a a N R  .=.2.2.2.$.] F v a b _ I.<.ZXZXZXZXZX",
"ZXZXZXZXZXZX>. Xg.) F R $.k.C.D.D.Z.x.=.[ J / t.U.>.ZXZXZXZXZXZX",
"ZXZXZXZXZXZXZXE P.|.F.m.Z.Q.oX=X=X@X.XA.M.V.'.K.E ZXZXZXZXZXZXZX",
"ZXZXZXZXZXZXZXZXZX4.[.1X5XeXuXaXaXiXrX5X<XP.-.ZXZXZXZXZXZXZXZXZX",
"ZXZXZXZXZXZXZXZXZXZXZXZXG.L.:X,X,X>XL.G.ZXZXZXZXZXZXZXZXZXZXZXZX",
"ZXZXZXZXZXZXZXZXZXZXZXZXZXZXZXZXZXZXZXZXZXZXZXZXZXZXZXZXZXZXZXZX"
};
