/* XPM */
static const char * selectedknob_xpm[] = {
"9 9 13 1",
" 	c None",
".	c #670000",
"+	c #800000",
"@	c #A83737",
"#	c #9A2020",
"$	c #530000",
"%	c #850606",
"&	c #9F2727",
"*	c #5B0000",
"=	c #700000",
"-	c #8E1010",
";	c #5E0000",
">	c #460000",
"  .+@@#  ",
" $.%&@## ",
"$*=+-@@@#",
"$*=%-#@@@",
"$;=+-###@",
"$$;+%---&",
">$*==+%+#",
" $$*.=== ",
"  $$$*;  "};
