/* XPM */
static char * selectedknob2_xpm[] = {
"9 9 17 1",
" 	c None",
".	c #960202",
"+	c #ED0202",
"@	c #D20202",
"#	c #BA0202",
"$	c #9E0202",
"%	c #B30202",
"&	c #F20202",
"*	c #E50202",
"=	c #C80202",
"-	c #9A0226",
";	c #F60202",
">	c #A20202",
",	c #C20202",
"'	c #FD0202",
")	c #D90202",
"!	c #A60202",
"  %,''*  ",
" !%,&'+' ",
"$>%=)''''",
"$!#=)+'''",
">>%,)*++&",
".$%%@@))&",
"..!%#,=,*",
" -.>%%%% ",
"  -.$!!  "};
