/* XPM */
static const char * images_xspeaker_xpm[] = {
"19 20 42 1",
" 	c #FFFF00000000",
".	c none",
"X	c #000000000000",
"o	c #618561856185",
"O	c #618565956185",
"+	c #69A669A669A6",
"@	c #79E77DF779E7",
"#	c #71C671C671C6",
"$	c #BEFBBEFBBEFB",
"%	c #861786178617",
"&	c #49244D344924",
"*	c #492449244924",
"=	c #71C675D671C6",
"-	c #861782078617",
";	c #8E388A288E38",
":	c #965892489658",
">	c #9E799E799E79",
",	c #59655D755965",
"<	c #BEFBBAEABEFB",
"1	c #79E779E779E7",
"2	c #A699A289A699",
"3	c #C71BC71BC71B",
"4	c #AEBAAEBAAEBA",
"5	c #B6DAB6DAB6DA",
"6	c #EFBEEFBEEFBE",
"7	c #A699A699A699",
"8	c #C71BC30BC71B",
"9	c #9E799A699E79",
"0	c #30C230C230C2",
"q	c #596559655965",
"w	c #69A66DB669A6",
"e	c #514455555144",
"r	c #28A228A228A2",
"t	c #410341034103",
"y	c #38E33CF338E3",
"u	c #104010401040",
"i	c #208124922081",
"p	c #18611C711861",
"a	c #28A22CB228A2",
"s	c #514451445144",
"d	c #30C234D330C2",
"f	c #38E338E338E3",
" ...........XXX... ",
"  .........oXXXX.  ",
".  .......OXXXXX  .",
"..  .....+@XXXX  ..",
"...  ...#$%XXX  XX.",
"...&  *=-%;XX  XXX.",
".:>,,  -%;;X  XXXX.",
"<$1ooo  %;;  X>2oX.",
"33oooO%  %  XX452X.",
"33oooo%-   XXX$67*X",
"8$,,,,$$   XXX9>:0X",
"55qqqq=  1  XX1$oXX",
"77weee  w##  XXrXXX",
"::,&&  qoO+X  XXXXX",
".+*t  yy&e,XX  XXX.",
"..u  ripay*sXX  XX.",
"..  .....udyXXX  X.",
".  ........ifXXX  .",
"  ...........XXXX  ",
" .............XX.. "};
