/* XPM */
static const char * xpm_pause2[] = {
"22 22 3 1",
" 	c None",
".	c Yellow",
"#	c #000000",
"                      ",
"                      ",
"                      ",
"                      ",
"                      ",
"                      ",
"     #####  #####     ",
"     #...#  #...#     ",
"     #...#  #...#     ",
"     #...#  #...#     ",
"     #...#  #...#     ",
"     #...#  #...#     ",
"     #...#  #...#     ",
"     #...#  #...#     ",
"     #...#  #...#     ",
"     #####  #####     ",
"                      ",
"                      ",
"                      ",
"                      ",
"                      ",
"                      "};
