/* XPM */
static const char *xpm_stop[] = {
/* columns rows colors chars-per-pixel */
"22 22 2 1",
"  c None",
"# c #000000",
/* pixels */
"                      ",
"                      ",
"                      ",
"                      ",
"                      ",
"      ##########      ",
"      ##########      ",
"      ##########      ",
"      ##########      ",
"      ##########      ",
"      ##########      ",
"      ##########      ",
"      ##########      ",
"      ##########      ",
"      ##########      ",
"      ##########      ",
"      ##########      ",
"                      ",
"                      ",
"                      ",
"                      ",
"                      ",
};
