/* XPM */
static char *xpm_zoomin[] = {
/* columns rows colors chars-per-pixel */
"32 32 166 2",
"   c black",
".  c #0E0E0E",
"X  c #12100B",
"o  c #151515",
"O  c #1D1D1D",
"+  c #00062C",
"@  c #000B33",
"#  c #242425",
"$  c #2D2B2B",
"%  c #383535",
"&  c #3A3B3C",
"*  c #001043",
"=  c #00124A",
"-  c #02184A",
";  c #001554",
":  c #031955",
">  c #00155B",
",  c #021B58",
"<  c #17284F",
"1  c #001466",
"2  c #041A64",
"3  c #00176C",
"4  c #041C6A",
"5  c #091D6B",
"6  c #001E72",
"7  c #001E79",
"8  c #032167",
"9  c #092266",
"0  c #04236B",
"q  c #0A226D",
"w  c #102E68",
"e  c #19396E",
"r  c #002077",
"t  c #0C2571",
"y  c #00217B",
"u  c #152A7A",
"i  c #06367A",
"p  c #173A75",
"a  c #454545",
"s  c #555353",
"d  c #585858",
"f  c #4C5569",
"g  c #535762",
"h  c #55617B",
"j  c #636365",
"k  c #686765",
"l  c #65686B",
"z  c #6A6A6B",
"x  c #676E7D",
"c  c #727578",
"v  c #7B7B7C",
"b  c #002481",
"n  c #042A8C",
"m  c #092D8E",
"M  c #0F3580",
"N  c #163895",
"B  c #153D9B",
"V  c #0E4087",
"C  c #0E4289",
"Z  c #0F4B8D",
"A  c #174C9A",
"S  c #1A4E9A",
"D  c #234D93",
"F  c #1A43A3",
"G  c #1B4DA3",
"H  c #1D58B8",
"J  c #2445A4",
"K  c #2252A3",
"L  c #2155B6",
"P  c #275EB4",
"I  c #285EB9",
"U  c #375AB9",
"Y  c #2D61B5",
"T  c #3C61BD",
"R  c #687186",
"E  c #7B7D80",
"W  c #717B91",
"Q  c #4369BC",
"!  c #5973B3",
"~  c #2664C4",
"^  c #3B64C0",
"/  c #3D6DC9",
"(  c #337CCE",
")  c #426AC5",
"_  c #466EC9",
"`  c #487DD7",
"'  c #5691E5",
"]  c #678FED",
"[  c #6690EC",
"{  c #6A93EF",
"}  c #629AEC",
"|  c #6C95F1",
" . c #6F9CF7",
".. c #73A2FA",
"X. c #808282",
"o. c #8A8B8C",
"O. c #8F9295",
"+. c #949495",
"@. c #97979A",
"#. c #97989A",
"$. c #9A9C9D",
"%. c #9D9FA2",
"&. c #8E9AB7",
"*. c #A2A2A4",
"=. c #A5A7AA",
"-. c #A7AAAC",
";. c #AAA9A9",
":. c #B0AFAF",
">. c #A2A5B4",
",. c #ACADB4",
"<. c #B1B2B2",
"1. c #B7BABC",
"2. c #BDBFC1",
"3. c #81AFFE",
"4. c #82B1FF",
"5. c #8DB6FF",
"6. c #87BAFF",
"7. c #90B7FF",
"8. c #91B8FF",
"9. c #9FBDFF",
"0. c #A0BFFF",
"q. c #BDC0C2",
"w. c #BCC2D7",
"e. c #B3C1D9",
"r. c #9BC2FF",
"t. c #AECAF5",
"y. c #A5C3FF",
"u. c #A3CBFF",
"i. c #AACAFF",
"p. c #B5CDFE",
"a. c #AFD0FF",
"s. c #BDD4FF",
"d. c #BBDCFF",
"f. c #C3C4C5",
"g. c #C5C7C8",
"h. c #C5C8CA",
"j. c #C9CBCD",
"k. c #D3D4D6",
"l. c #D4D5D8",
"z. c #D7D8DA",
"x. c #DCDDDE",
"c. c #DDDEE3",
"v. c #D2D7EA",
"b. c #C2D2FF",
"n. c #C5DDFF",
"m. c #C5E3FF",
"M. c #CCE3FF",
"N. c #CDEDFF",
"B. c #D3E6FF",
"V. c #D2ECFF",
"C. c #DAECFF",
"Z. c #D1F3FF",
"A. c #DFF1FF",
"S. c #D7F9FF",
"D. c #DCFDFF",
"F. c #E3E5EB",
"G. c #E7E9EA",
"H. c #EAEBEC",
"J. c #E4E9F5",
"K. c #E3F3FF",
"L. c #E4FFFF",
"P. c #ECFEFF",
"I. c #F2F3F4",
"U. c #F4FFFF",
"Y. c #FEFFFF",
"T. c None",
/* pixels */
"T.T.T.T.T.T.T.T.T.T.$.#.@.$.T.T.T.T.T.T.T.T.T.T.T.T.T.T.T.T.T.T.",
"T.T.T.T.T.T.T.T.*.s         $ o.+.T.T.T.T.T.T.T.T.T.T.T.T.T.T.T.",
"T.T.T.T.T.T.=.d T.T.T.T.T.T.T.T.X *.T.T.T.T.T.T.T.T.T.T.T.T.T.T.",
"T.T.T.T.T.=.O T.T.Y.Y.Y.T.T.T.T.T.  +.T.T.T.T.T.T.T.T.T.T.T.T.T.",
"T.T.T.T.o.% T.c.Y.Y.Y.T.T.T.T.T.T.T.  $.T.T.T.T.T.T.T.T.T.T.T.T.",
"T.T.T.T.+.T.J.Y.Y.Y.T.T.T.T.T.T.T.T.T.a E T.T.T.T.T.T.T.T.T.T.T.",
"T.T.T.a g T.T.Y.Y.Y.T.T.T.T.T.T.T.T.T.T.o.T.T.T.T.T.T.T.T.T.T.T.",
"T.T.T.v T.Y.T.T.Y.Y.T.T.T.T.T.T.T.T.T.T.o.T.T.T.T.T.T.T.T.T.T.T.",
"T.T.T.+.T.Y.Y.T.T.Y.T.T.T.T.T.T.T.T.T.T.>.T.T.T.T.T.T.T.T.T.T.T.",
"T.T.T.=.T.Y.Y.Y.T.T.T.T.T.T.T.T.T.T.T.T.w.z T.T.T.T.T.T.T.T.T.T.",
"T.T.T.,.p.Y.Y.Y.Y.Y.T.T.T.T.T.T.T.T.T.T.v.j T.T.T.T.T.T.T.T.T.T.",
"T.T.T.$.b.Y.Y.Y.Y.U.U.U.U.U.U.U.L.S.d.p.c.T.T.T.T.T.T.T.T.T.T.T.",
"T.T.T.s C.B.Y.U.U.U.U.U.U.U.U.P.D.N.i.B.f.T.T.T.T.T.T.T.T.T.T.T.",
"T.T.T.T.F.n.C.L.L.P.P.P.P.P.P.L.Z.d.y.Y.v T.T.T.T.T.T.T.T.T.T.T.",
"T.T.T.T.k Y.p.m.Z.S.L.L.L.L.D.Z.d.9.P.f.T.T.T.T.T.T.T.T.T.T.T.T.",
"T.T.T.T.T.:.Y.i.i.d.N.Z.Z.N.m.a.0.K.I.& T.T.T.T.T.T.T.T.T.T.T.T.",
"T.T.T.T.T.T.;.Y.M.y.y.i.i.y.y.s.Y.x.=.j.H.T.T.T.T.T.T.T.T.T.T.T.",
"T.T.T.T.T.T.T.s F.Y.U.K.A.P.Y.Y.+.T.T.l.O.H.T.T.T.T.T.T.T.T.T.T.",
"T.T.T.T.8 2 4 2 : < x ;.<.+.s   T.T.T.X.%.l z.Y.T.T.T.T.T.T.T.T.",
"T.T.T.5 ! t.B.B.t.! 2 - T.T.T.T.T.T.T.T.$.O.c j.Y.T.T.T.T.T.T.T.",
"T.T.u u.V.M.n.n.M.V.u.u T.T.T.T.T.T.T.T.T.<.+.o.f.Y.T.T.T.T.T.T.",
"T.5 6.r.7.8.e.e.7.5.r.4.5 T.T.T.T.T.T.T.T.. 2.$.=.g.Y.T.T.T.T.T.",
"8 Q ..] { | Y.Y.| { [  .T 8 T.T.T.T.T.T.T.T.O g.-.2.k.Y.T.T.T.T.",
"2 ` ^ ) ) _ Y.Y._ ) ) T / 2 T.T.T.T.T.T.T.T.T.# g.1.l.x.Y.T.T.T.",
"q I B h Y.Y.Y.Y.Y.Y.W F L 9 T.T.T.T.T.T.T.T.T.T.# f.h.H.G.I.T.T.",
"t e @ f Y.Y.Y.Y.Y.Y.R : w 9 T.T.T.T.T.T.T.T.T.T.T.# f.l.Y.I.H.T.",
"q D + * ; > Y.Y.2 > = + p q T.T.T.T.T.T.T.T.T.T.T.T.O q.c.Y.Y.#.",
"8 Y , > 4 6 Y.Y.r 6 2 ; K 8 T.T.T.T.T.T.T.T.T.T.T.T.T.o 1.I.o.T.",
"T.M P 1 7 b &.&.b y 3 G M T.T.T.T.T.T.T.T.T.T.T.T.T.T.T.. & T.T.",
"T.T.S ~ n N U T J m H A T.T.T.T.T.T.T.T.T.T.T.T.T.T.T.T.T.T.T.T.",
"T.T.T.V ( ' 3.5.} ( C T.T.T.T.T.T.T.T.T.T.T.T.T.T.T.T.T.T.T.T.T.",
"T.T.T.T.8 i Z Z i 0 T.T.T.T.T.T.T.T.T.T.T.T.T.T.T.T.T.T.T.T.T.T."
};
