/* XPM */
static char *xpm_zoomall[] = {
/* columns rows colors chars-per-pixel */
"32 32 164 2",
"   c black",
".  c #0E0E0E",
"X  c #12100B",
"o  c #151515",
"O  c #1D1D1D",
"+  c #00062C",
"@  c #000B33",
"#  c #242425",
"$  c #2D2B2B",
"%  c #383535",
"&  c #3A3B3C",
"*  c #001043",
"=  c #00124A",
"-  c #02184A",
";  c #001654",
":  c #031955",
">  c #001459",
",  c #021B58",
"<  c #17284F",
"1  c #001466",
"2  c #051B64",
"3  c #00176C",
"4  c #071C68",
"5  c #091D6B",
"6  c #001E79",
"7  c #032167",
"8  c #092266",
"9  c #04236B",
"0  c #0A226D",
"q  c #102E68",
"w  c #19396E",
"e  c #0C2571",
"r  c #092A77",
"t  c #00217B",
"y  c #152A7A",
"u  c #06367A",
"i  c #173A75",
"p  c #454545",
"a  c #555353",
"s  c #585858",
"d  c #535762",
"f  c #636365",
"g  c #686765",
"h  c #65686B",
"j  c #6A6A6B",
"k  c #676E7D",
"l  c #727578",
"z  c #7B7B7C",
"x  c #002481",
"c  c #032985",
"v  c #042A8C",
"b  c #092D8E",
"n  c #0F3580",
"m  c #163895",
"M  c #153D9B",
"N  c #0E4087",
"B  c #0E4289",
"V  c #0F4B8D",
"C  c #174C9A",
"Z  c #1A4E9A",
"A  c #234D93",
"S  c #1A43A3",
"D  c #1B4DA3",
"F  c #1D58B8",
"G  c #2445A4",
"H  c #224AA9",
"J  c #2252A3",
"K  c #2155B6",
"L  c #275EB4",
"P  c #285EB9",
"I  c #375AB9",
"U  c #2D61B5",
"Y  c #3C61BD",
"T  c #7B7D80",
"R  c #4369BC",
"E  c #5973B3",
"W  c #2664C4",
"Q  c #3B64C0",
"!  c #3D6DC9",
"~  c #337CCE",
"^  c #4069C3",
"/  c #487DD7",
"(  c #5691E5",
")  c #678FED",
"_  c #6690EC",
"`  c #629AEC",
"'  c #6F9CF7",
"]  c #73A2FA",
"[  c #808282",
"{  c #8A8B8C",
"}  c #8F9295",
"|  c #949495",
" . c #97979A",
".. c #97989A",
"X. c #9A9C9D",
"o. c #9D9FA2",
"O. c #A2A2A4",
"+. c #A5A7AA",
"@. c #A7AAAC",
"#. c #AAA9A9",
"$. c #B0AFAF",
"%. c #A2A5B4",
"&. c #ACADB4",
"*. c #B1B2B2",
"=. c #B7BABC",
"-. c #BDBFC1",
";. c #81AFFE",
":. c #82B1FF",
">. c #8DB6FF",
",. c #87BAFF",
"<. c #90B7FF",
"1. c #91B8FF",
"2. c #9FBDFF",
"3. c #A0BFFF",
"4. c #BDC0C2",
"5. c #BCC2D7",
"6. c #9BC2FF",
"7. c #AECAF5",
"8. c #A5C3FF",
"9. c #A3CBFF",
"0. c #AACAFF",
"q. c #B5CDFE",
"w. c #AFD0FF",
"e. c #BDD4FF",
"r. c #BBDCFF",
"t. c #C3C4C5",
"y. c #C5C7C8",
"u. c #C5C8CA",
"i. c #C9CBCD",
"p. c #D3D4D6",
"a. c #D4D5D8",
"s. c #D7D8DA",
"d. c #DCDDDE",
"f. c #D2D7E6",
"g. c #DDDEE3",
"h. c #D2D7EA",
"j. c #DADEEA",
"k. c #C2D2FF",
"l. c #C5DDFF",
"z. c #DEE0E8",
"x. c #C5E3FF",
"c. c #CCE3FF",
"v. c #CDEDFF",
"b. c #D3E6FF",
"n. c #D2ECFF",
"m. c #DAECFF",
"M. c #D1F3FF",
"N. c #DFF1FF",
"B. c #D7F9FF",
"V. c #DCFDFF",
"C. c #E3E4E9",
"Z. c #E7E9EA",
"A. c #EAEBEC",
"S. c #E4E9F5",
"D. c #EDEFF4",
"F. c #EEF1F6",
"G. c #E3F3FF",
"H. c #E4FFFF",
"J. c #ECFEFF",
"K. c #F2F3F4",
"L. c #F1F4F9",
"P. c #F4FFFF",
"I. c #FEFFFF",
"U. c None",
/* pixels */
"U.U.U.U.U.U.U.U.U.U.X... .X.U.U.U.U.U.U.U.U.U.U.U.U.U.U.U.U.U.U.",
"U.U.U.U.U.U.U.U.O.a         $ { | U.U.U.U.U.U.U.U.U.U.U.U.U.U.U.",
"U.U.U.U.U.U.+.s U.U.U.U.U.U.U.U.X O.U.U.U.U.U.U.U.U.U.U.U.U.U.U.",
"U.U.U.U.U.+.O U.U.I.I.I.U.U.U.U.U.  | U.U.U.U.U.U.U.U.U.U.U.U.U.",
"U.U.U.U.{ % U.g.I.I.I.U.U.U.U.U.U.U.  X.U.U.U.U.U.U.U.U.U.U.U.U.",
"U.U.U.U.| U.S.I.I.I.U.U.U.U.U.U.U.U.U.p T U.U.U.U.U.U.U.U.U.U.U.",
"U.U.U.p d U.U.I.I.I.U.U.U.U.U.U.U.U.U.U.{ U.U.U.U.U.U.U.U.U.U.U.",
"U.U.U.z U.I.U.U.I.I.U.U.U.U.U.U.U.U.U.U.{ U.U.U.U.U.U.U.U.U.U.U.",
"U.U.U.| U.I.I.U.U.I.U.U.U.U.U.U.U.U.U.U.%.U.U.U.U.U.U.U.U.U.U.U.",
"U.U.U.+.U.I.I.I.U.U.U.U.U.U.U.U.U.U.U.U.5.j U.U.U.U.U.U.U.U.U.U.",
"U.U.U.&.q.I.I.I.I.I.U.U.U.U.U.U.U.U.U.U.h.f U.U.U.U.U.U.U.U.U.U.",
"U.U.U.X.k.I.I.I.I.P.P.P.P.P.P.P.H.B.r.q.j.U.U.U.U.U.U.U.U.U.U.U.",
"U.U.U.a m.b.I.P.P.P.P.P.P.P.P.J.V.v.0.b.t.U.U.U.U.U.U.U.U.U.U.U.",
"U.U.U.U.C.l.m.H.H.J.J.J.J.J.J.H.M.r.8.I.z U.U.U.U.U.U.U.U.U.U.U.",
"U.U.U.U.g I.q.x.M.B.H.H.H.H.V.M.r.2.J.t.U.U.U.U.U.U.U.U.U.U.U.U.",
"U.U.U.U.U.$.I.0.0.r.v.M.M.v.x.w.3.G.K.& U.U.U.U.U.U.U.U.U.U.U.U.",
"U.U.U.U.U.U.#.I.c.8.8.0.0.8.8.e.I.d.+.i.A.U.U.U.U.U.U.U.U.U.U.U.",
"U.U.U.U.U.U.U.a C.I.P.G.N.J.I.I.| U.U.a.} A.U.U.U.U.U.U.U.U.U.U.",
"U.U.U.U.7 2 4 4 : < k #.*.| a   U.U.U.[ o.h s.I.U.U.U.U.U.U.U.U.",
"U.U.U.5 E 7.b.b.7.E 2 - U.U.U.U.U.U.U.U.X.} l i.I.U.U.U.U.U.U.U.",
"U.U.y 9.n.c.l.l.c.n.9.y U.U.U.U.U.U.U.U.U.*.| { t.I.U.U.U.U.U.U.",
"U.5 ,.6.<.1.1.1.<.>.6.:.5 U.U.U.U.U.U.U.U.. -.X.+.y.I.U.U.U.U.U.",
"7 R ] ) f.C.z.z.C.f._ ' Y 7 U.U.U.U.U.U.U.U.O y.@.-.p.I.U.U.U.U.",
"4 / Q ^ L.I.I.I.I.L.^ Y ! 4 U.U.U.U.U.U.U.U.U.# y.=.a.d.I.U.U.U.",
"0 P M H L.I.I.I.I.L.H S K 8 U.U.U.U.U.U.U.U.U.U.# t.u.A.Z.K.U.U.",
"e w @ 7 F.I.I.I.I.F.r : q 8 U.U.U.U.U.U.U.U.U.U.U.# t.a.I.K.A.U.",
"0 A + * D.I.I.I.I.D.= + i 0 U.U.U.U.U.U.U.U.U.U.U.U.O 4.g.I.I...",
"7 U , > j.L.D.D.L.j.2 ; J 7 U.U.U.U.U.U.U.U.U.U.U.U.U.o =.K.{ U.",
"U.n L 1 6 x c c x t 3 D n U.U.U.U.U.U.U.U.U.U.U.U.U.U.U.. & U.U.",
"U.U.Z W v m I Y G b F C U.U.U.U.U.U.U.U.U.U.U.U.U.U.U.U.U.U.U.U.",
"U.U.U.N ~ ( ;.>.` ~ B U.U.U.U.U.U.U.U.U.U.U.U.U.U.U.U.U.U.U.U.U.",
"U.U.U.U.7 u V V u 9 U.U.U.U.U.U.U.U.U.U.U.U.U.U.U.U.U.U.U.U.U.U."
};
