/* XPM */
static const char *xpm_zoomout[] = {
/* columns rows colors chars-per-pixel */
"32 32 165 2",
"   c black",
".  c #0E0E0E",
"X  c #12100B",
"o  c #151515",
"O  c #1D1D1D",
"+  c #00062C",
"@  c #000B33",
"#  c #242425",
"$  c #2D2B2B",
"%  c #383535",
"&  c #3A3B3C",
"*  c #001043",
"=  c #00124A",
"-  c #02184A",
";  c #001554",
":  c #031955",
">  c #00155B",
",  c #021B58",
"<  c #17284F",
"1  c #001466",
"2  c #031A64",
"3  c #00176C",
"4  c #041C6A",
"5  c #091D6B",
"6  c #001E72",
"7  c #001F79",
"8  c #032167",
"9  c #092266",
"0  c #04236B",
"q  c #0A226D",
"w  c #102E68",
"e  c #19396E",
"r  c #002077",
"t  c #0C2571",
"y  c #00217B",
"u  c #152A7A",
"i  c #06367A",
"p  c #173A75",
"a  c #354569",
"s  c #454545",
"d  c #555353",
"f  c #585858",
"g  c #535762",
"h  c #636365",
"j  c #686765",
"k  c #65686B",
"l  c #6A6A6B",
"z  c #676E7D",
"x  c #727578",
"c  c #7B7B7C",
"v  c #002481",
"b  c #032985",
"n  c #042A8C",
"m  c #092D8E",
"M  c #0F3580",
"N  c #163895",
"B  c #153D9B",
"V  c #0E4087",
"C  c #0E4289",
"Z  c #0F4B8D",
"A  c #174C9A",
"S  c #1A4E9A",
"D  c #234D93",
"F  c #1A43A3",
"G  c #1B4DA3",
"H  c #1D58B8",
"J  c #2445A4",
"K  c #2252A3",
"L  c #2155B6",
"P  c #275EB4",
"I  c #285EB9",
"U  c #375AB9",
"Y  c #2D61B5",
"T  c #3C61BD",
"R  c #4C5D85",
"E  c #465A88",
"W  c #5E719B",
"Q  c #7B7D80",
"!  c #4369BC",
"~  c #5973B3",
"^  c #2664C4",
"/  c #3B64C0",
"(  c #3D6DC9",
")  c #337CCE",
"_  c #426AC5",
"`  c #476FCA",
"'  c #487DD7",
"]  c #5691E5",
"[  c #678FED",
"{  c #6690EC",
"}  c #6A93EF",
"|  c #629AEC",
" . c #6C96F2",
".. c #6F9CF7",
"X. c #73A2FA",
"o. c #808282",
"O. c #8A8B8C",
"+. c #8F9295",
"@. c #949495",
"#. c #97979A",
"$. c #97989A",
"%. c #9A9C9D",
"&. c #9D9FA2",
"*. c #A2A2A4",
"=. c #A5A7AA",
"-. c #A7AAAC",
";. c #AAA9A9",
":. c #B0AFAF",
">. c #A2A5B4",
",. c #ACADB4",
"<. c #B1B2B2",
"1. c #B7BABC",
"2. c #BDBFC1",
"3. c #81AFFE",
"4. c #82B1FF",
"5. c #8DB6FF",
"6. c #87BAFF",
"7. c #90B7FF",
"8. c #91B8FF",
"9. c #9FBDFF",
"0. c #A0BFFF",
"q. c #BDC0C2",
"w. c #BCC2D7",
"e. c #9BC2FF",
"r. c #AECAF5",
"t. c #A5C3FF",
"y. c #A3CBFF",
"u. c #AACAFF",
"i. c #B5CDFE",
"p. c #AFD0FF",
"a. c #BDD4FF",
"s. c #BBDCFF",
"d. c #C3C4C5",
"f. c #C5C7C8",
"g. c #C5C8CA",
"h. c #C9CBCD",
"j. c #D3D4D6",
"k. c #D4D5D8",
"l. c #D7D8DA",
"z. c #DCDDDE",
"x. c #DDDEE3",
"c. c #D2D7EA",
"v. c #C2D2FF",
"b. c #C5DDFF",
"n. c #C5E3FF",
"m. c #CCE3FF",
"M. c #CDEDFF",
"N. c #D3E6FF",
"B. c #D2ECFF",
"V. c #DAECFF",
"C. c #D1F3FF",
"Z. c #DFF1FF",
"A. c #D7F9FF",
"S. c #DCFDFF",
"D. c #E3E5EB",
"F. c #E7E9EA",
"G. c #EAEBEC",
"H. c #E4E9F5",
"J. c #E3F3FF",
"K. c #E4FFFF",
"L. c #ECFEFF",
"P. c #F2F3F4",
"I. c #F4FFFF",
"U. c #FEFFFF",
"Y. c None",
/* pixels */
"Y.Y.Y.Y.Y.Y.Y.Y.Y.Y.%.$.#.%.Y.Y.Y.Y.Y.Y.Y.Y.Y.Y.Y.Y.Y.Y.Y.Y.Y.Y.",
"Y.Y.Y.Y.Y.Y.Y.Y.*.d         $ O.@.Y.Y.Y.Y.Y.Y.Y.Y.Y.Y.Y.Y.Y.Y.Y.",
"Y.Y.Y.Y.Y.Y.=.f Y.Y.Y.Y.Y.Y.Y.Y.X *.Y.Y.Y.Y.Y.Y.Y.Y.Y.Y.Y.Y.Y.Y.",
"Y.Y.Y.Y.Y.=.O Y.Y.U.U.U.Y.Y.Y.Y.Y.  @.Y.Y.Y.Y.Y.Y.Y.Y.Y.Y.Y.Y.Y.",
"Y.Y.Y.Y.O.% Y.x.U.U.U.Y.Y.Y.Y.Y.Y.Y.  %.Y.Y.Y.Y.Y.Y.Y.Y.Y.Y.Y.Y.",
"Y.Y.Y.Y.@.Y.H.U.U.U.Y.Y.Y.Y.Y.Y.Y.Y.Y.s Q Y.Y.Y.Y.Y.Y.Y.Y.Y.Y.Y.",
"Y.Y.Y.s g Y.Y.U.U.U.Y.Y.Y.Y.Y.Y.Y.Y.Y.Y.O.Y.Y.Y.Y.Y.Y.Y.Y.Y.Y.Y.",
"Y.Y.Y.c Y.U.Y.Y.U.U.Y.Y.Y.Y.Y.Y.Y.Y.Y.Y.O.Y.Y.Y.Y.Y.Y.Y.Y.Y.Y.Y.",
"Y.Y.Y.@.Y.U.U.Y.Y.U.Y.Y.Y.Y.Y.Y.Y.Y.Y.Y.>.Y.Y.Y.Y.Y.Y.Y.Y.Y.Y.Y.",
"Y.Y.Y.=.Y.U.U.U.Y.Y.Y.Y.Y.Y.Y.Y.Y.Y.Y.Y.w.l Y.Y.Y.Y.Y.Y.Y.Y.Y.Y.",
"Y.Y.Y.,.i.U.U.U.U.U.Y.Y.Y.Y.Y.Y.Y.Y.Y.Y.c.h Y.Y.Y.Y.Y.Y.Y.Y.Y.Y.",
"Y.Y.Y.%.v.U.U.U.U.U.I.U.U.I.I.I.K.A.s.i.x.Y.Y.Y.Y.Y.Y.Y.Y.Y.Y.Y.",
"Y.Y.Y.d V.N.U.U.I.I.I.I.I.I.I.L.S.M.u.N.d.Y.Y.Y.Y.Y.Y.Y.Y.Y.Y.Y.",
"Y.Y.Y.Y.D.b.V.K.K.L.L.L.L.L.L.K.C.s.t.U.c Y.Y.Y.Y.Y.Y.Y.Y.Y.Y.Y.",
"Y.Y.Y.Y.j U.i.n.C.A.K.K.K.K.S.C.s.9.L.d.Y.Y.Y.Y.Y.Y.Y.Y.Y.Y.Y.Y.",
"Y.Y.Y.Y.Y.:.U.u.u.s.M.C.C.M.n.p.0.J.P.& Y.Y.Y.Y.Y.Y.Y.Y.Y.Y.Y.Y.",
"Y.Y.Y.Y.Y.Y.;.U.m.t.t.u.u.t.t.a.U.z.=.h.G.Y.Y.Y.Y.Y.Y.Y.Y.Y.Y.Y.",
"Y.Y.Y.Y.Y.Y.Y.d D.U.I.J.Z.L.U.U.@.Y.Y.k.+.G.Y.Y.Y.Y.Y.Y.Y.Y.Y.Y.",
"Y.Y.Y.Y.8 2 4 2 : < z ;.<.@.d   Y.Y.Y.o.&.k l.U.Y.Y.Y.Y.Y.Y.Y.Y.",
"Y.Y.Y.5 ~ r.N.N.r.~ 2 - Y.Y.Y.Y.Y.Y.Y.Y.%.+.x h.U.Y.Y.Y.Y.Y.Y.Y.",
"Y.Y.u y.B.m.b.b.m.B.y.u Y.Y.Y.Y.Y.Y.Y.Y.Y.<.@.O.d.U.Y.Y.Y.Y.Y.Y.",
"Y.5 6.e.7.8.8.8.7.5.e.4.5 Y.Y.Y.Y.Y.Y.Y.Y.. 2.%.=.f.U.Y.Y.Y.Y.Y.",
"8 ! X.[ }  . . . .} { ..T 8 Y.Y.Y.Y.Y.Y.Y.Y.O f.-.2.j.U.Y.Y.Y.Y.",
"2 ' / _ _ ` ` ` ` _ _ T ( 2 Y.Y.Y.Y.Y.Y.Y.Y.Y.# f.1.k.z.U.Y.Y.Y.",
"q I B E U.U.U.U.U.U.W F L 9 Y.Y.Y.Y.Y.Y.Y.Y.Y.Y.# d.g.G.F.P.Y.Y.",
"t e @ a U.U.U.U.U.U.R : w 9 Y.Y.Y.Y.Y.Y.Y.Y.Y.Y.Y.# d.k.U.P.G.Y.",
"q D + * ; > 2 2 2 > = + p q Y.Y.Y.Y.Y.Y.Y.Y.Y.Y.Y.Y.O q.x.U.U.$.",
"8 Y , > 4 6 7 7 r 6 2 ; K 8 Y.Y.Y.Y.Y.Y.Y.Y.Y.Y.Y.Y.Y.o 1.P.O.Y.",
"Y.M P 1 7 v b b v y 3 G M Y.Y.Y.Y.Y.Y.Y.Y.Y.Y.Y.Y.Y.Y.Y.. & Y.Y.",
"Y.Y.S ^ n N U T J m H A Y.Y.Y.Y.Y.Y.Y.Y.Y.Y.Y.Y.Y.Y.Y.Y.Y.Y.Y.Y.",
"Y.Y.Y.V ) ] 3.5.| ) C Y.Y.Y.Y.Y.Y.Y.Y.Y.Y.Y.Y.Y.Y.Y.Y.Y.Y.Y.Y.Y.",
"Y.Y.Y.Y.8 i Z Z i 0 Y.Y.Y.Y.Y.Y.Y.Y.Y.Y.Y.Y.Y.Y.Y.Y.Y.Y.Y.Y.Y.Y."
};
