/* XPM */
static const char *xpm_zoomrange[] = {
/* columns rows colors chars-per-pixel */
"32 32 173 2",
"   c black",
".  c gray5",
"X  c #0E0E0E",
"o  c #12100B",
"O  c #151515",
"+  c #1B1B1B",
"@  c #1E1D1D",
"#  c #1E1E1E",
"$  c #232323",
"%  c #232325",
"&  c gray15",
"*  c #2D2B2B",
"=  c #323030",
"-  c #383535",
";  c #38383A",
":  c #3B3D3D",
">  c #434243",
",  c gray28",
"<  c #535353",
"1  c #555353",
"2  c #585858",
"3  c #535762",
"4  c #636365",
"5  c #686765",
"6  c #65686B",
"7  c #6A6A6B",
"8  c #727578",
"9  c #7B7A7A",
"0  c #7B7B7D",
"q  c #7B7D80",
"w  c #808282",
"e  c #838383",
"r  c #8A8888",
"t  c #888A8A",
"y  c #8C8A8A",
"u  c #8A8A8F",
"i  c #8A8D8F",
"p  c #8C8C8F",
"a  c #8F9294",
"s  c #8F9295",
"d  c #929090",
"f  c #909497",
"g  c #949495",
"h  c #959595",
"j  c #979595",
"k  c #979795",
"l  c #949497",
"z  c #97979A",
"x  c #97989A",
"c  c #989A9A",
"v  c #9A9A9A",
"b  c #9A9A9C",
"n  c #989C9D",
"m  c #9C9C9F",
"M  c #9C9D9F",
"N  c #9D9F9F",
"B  c #9D9FA2",
"V  c #A0A0A2",
"C  c #A2A2A4",
"Z  c #A4A5A7",
"A  c #A2A5A8",
"S  c #A7A7AA",
"D  c #A5A7AD",
"F  c #A7AAAC",
"G  c #AAA8A8",
"H  c #AAAAAA",
"J  c #B0AFAF",
"K  c #A2A5B4",
"L  c #ACADB4",
"P  c gray69",
"I  c #B2B4B4",
"U  c #B7BABC",
"Y  c #BDBFC0",
"T  c #BDBFC2",
"R  c #9FBDFF",
"E  c #A0BFFF",
"W  c #BDC0C2",
"Q  c #BCC2D7",
"!  c #A4C2FF",
"~  c #A5C2FF",
"^  c #A4C4FF",
"/  c #A5C5FF",
"(  c #A7C4FF",
")  c #A8C8FF",
"_  c #A8CAFF",
"`  c #AACAFF",
"'  c #AFCAFF",
"]  c #AACCFF",
"[  c #B7CAFD",
"{  c #B2CDFF",
"}  c #B5CFFF",
"|  c #AFD0FF",
" . c #BDD4FF",
".. c #B8D8FF",
"X. c #BADAFF",
"o. c #BCDDFF",
"O. c #BFDFFF",
"+. c gray76",
"@. c #C2C4C5",
"#. c #C2C5C5",
"$. c #C4C5C7",
"%. c #C4C7C7",
"&. c #C5C7C8",
"*. c #C5C8CA",
"=. c #C8CACD",
"-. c #CACCCD",
";. c #D0D2D4",
":. c #D4D5D7",
">. c #D5D5D7",
",. c #D4D5D8",
"<. c #D7D8DA",
"1. c #DCDCDD",
"2. c #DCDDDF",
"3. c #DDDDE1",
"4. c #DDDFE1",
"5. c #DCDDE7",
"6. c #D2D7EA",
"7. c #C2D2FF",
"8. c #C4D8FF",
"9. c #C5E2FF",
"0. c #C4E4FF",
"q. c #CDE2FF",
"w. c #CCECFF",
"e. c #CDEDFF",
"r. c #CDEFFF",
"t. c #D2E7FF",
"y. c #D4E5FF",
"u. c #DCE9FF",
"i. c #D8EFFF",
"p. c #D0F2FF",
"a. c #D2F2FF",
"s. c #D4F5FF",
"d. c #DFF1FF",
"f. c #D7F9FF",
"g. c #D8FCFF",
"h. c #DCFDFF",
"j. c #DFFFFF",
"k. c #E5E5E9",
"l. c #E2E5EC",
"z. c #E7E9EA",
"x. c #E9EAEC",
"c. c #EAEAEC",
"v. c #ECECED",
"b. c #E4E9F5",
"n. c #E1F2FF",
"m. c #E5F4FF",
"M. c #E1FFFF",
"N. c #E4FFFF",
"B. c #E7FFFF",
"V. c #EAF9FF",
"C. c #EAFAFF",
"Z. c #E9FFFF",
"A. c #EAFFFF",
"S. c #ECFFFF",
"D. c #EDFFFF",
"F. c #EFFFFF",
"G. c #F1F2F2",
"H. c #F2F2F5",
"J. c #F2F4F5",
"K. c #F1FDFF",
"L. c #F1FFFF",
"P. c #F2FFFF",
"I. c #F4FFFF",
"U. c #F5FFFF",
"Y. c #F7FFFF",
"T. c #FAFAFC",
"R. c #FAFCFC",
"E. c #F9FFFF",
"W. c #FAFFFF",
"Q. c #FCFFFF",
"!. c #FDFFFF",
"~. c gray100",
"^. c None",
/* pixels */
"^.^.^.^.^.^.^.^.^.^.^.^.^.^.^.^.^.^.^.^.^.^.^.^.^.^.^.^.^.^.^.^.",
"^.^.^.^.^.^.^.^.^.m x z M ^.^.^.^.^.^.^.^.^.^.^.^.^.^.^.^.^.^.^.",
"^.^.^.^.^.^.^.C 1         * r l ^.^.^.^.^.^.^.^.^.^.^.^.^.^.^.^.",
"^.^.^.^.^.Z 2 ^.^.^.^.^.^.^.^.o V ^.^.^.^.^.^.^.^.^.^.^.^.^.^.^.",
"^.^.^.^.S @ ^.^.~.~.~.^.^.^.^.^.  j ^.^.^.^.^.^.^.^.^.^.^.^.^.^.",
"^.^.^.p - ^.3.~.~.~.^.^.^.^.^.^.^.  v ^.^.^.^.^.^.^.^.^.^.^.^.^.",
"^.^.^.d ^.b.~.~.~.^.^.^.^.^.^.^.^.^.> q ^.^.^.^.^.^.^.^.^.^.^.^.",
"^.^., 3 ^.^.~.~.~.^.^.^.^.^.^.^.^.^.^.y ^.^.^.^.^.^.^.^.^.^.^.^.",
"^.^.9 ^.~.^.^.~.~.^.^.^.^.^.^.^.^.^.^.u ^.^.^.^.^.^.^.^.^.^.^.^.",
"^.^.g ^.~.~.^.^.~.^.^.^.^.^.^.^.^.^.^.K ^.^.^.^.^.^.^.^.^.^.^.^.",
"^.^.D ^.~.~.~.^.^.^.^.^.^.^.^.^.^.^.^.Q 7 ^.^.^.^.^.^.^.^.^.^.^.",
"^.^.L [ ~.~.~.~.!.^.^.^.^.^.^.^.^.^.^.6.4 ^.^.^.^.^.^.^.^.^.^.^.",
"^.^.b 7.Q.~.~.~.E.U.E.E.Y.U.L.B.f...{ 5.^.^.^.^.^.^.^.^.^.^.^.^.",
"^.^.1 u.t.Q.E.Y.P.I.U.U.I.L.A.j.e.) y.+.^.^.^.^.^.^.^.^.^.^.^.^.",
"^.^.^.l.8.i.B.B.Z.S.F.F.D.A.M.s.X.~ ~.0 ^.^.^.^.^.^.^.^.^.^.^.^.",
"^.^.^.5 W.} 9.a.g.M.N.N.M.h.p.o.R V.+.^.^.^.^.^.^.^.^.^.^.^.^.^.",
"^.^.^.^.J Q.' ] O.w.p.p.r.0.| E m.H.; ^.^.^.^.^.^.^.^.^.^.^.^.^.",
"^.^.^.^.^.G ~.q.( ^ _ ` / !  .~.1.S =.c.^.^.^.^.^.^.^.^.^.^.^.^.",
"^.^.^.^.^.^.< k.~.K.n.d.C.~.~.h ^.^.,.a x.^.^.^.^.^.^.^.^.^.^.^.",
"^.^.^.^.^.^.^.^.= e H P k 1   ^.^.^.w B 6 <.~.^.^.^.^.^.^.^.^.^.",
"^.^.^.^.^.^.^.^.^.^.^.^.^.^.^.^.^.^.^.N s 8 -.~.^.^.^.^.^.^.^.^.",
"^.^.^.^.^.^.^.^.^.^.^.^.^.^.^.^.^.^.^.^.I f i @.~.^.^.^.^.^.^.^.",
"^.^.^.^.^.^.^.^.^.^.^.^.^.^.^.^.^.^.^.^.X T n A &.~.^.^.^.^.^.^.",
"^.^.^.^.^.^.^.^.^.^.^.^.^.^.^.^.^.^.^.^.^.# %.F Y ;.~.^.^.^.^.^.",
"^.^.^.^.^.^.^.^.^.^.^.^.^.^.^.^.^.^.^.^.^.^.& $.U >.2.T.^.^.^.^.",
"^.^.^.^.^.^.^.^.^.^.^.^.^.^.^.^.^.^.^.^.^.^.^.% @.*.c.z.G.^.^.^.",
"^.^.^.^.^.^.^.^.^.^.^.^.^.^.^.^.^.^.^.^.^.^.^.^.$ #.:.R.G.v.^.^.",
"^.^.^.^.^.^.^.^.^.^.^.^.^.^.^.^.^.^.^.^.^.^.^.^.^.+ W 4.!.~.c ^.",
"^.^.^.^.^.^.^.^.^.^.^.^.^.^.^.^.^.^.^.^.^.^.^.^.^.^.O U J.t ^.^.",
"^.^.^.^.^.^.^.^.^.^.^.^.^.^.^.^.^.^.^.^.^.^.^.^.^.^.^.. : ^.^.^.",
"^.^.^.^.^.^.^.^.^.^.^.^.^.^.^.^.^.^.^.^.^.^.^.^.^.^.^.^.^.^.^.^.",
"^.^.^.^.^.^.^.^.^.^.^.^.^.^.^.^.^.^.^.^.^.^.^.^.^.^.^.^.^.^.^.^."
};
