/* XPM */
static char *xpm_zoomnormal[] = {
/* columns rows colors chars-per-pixel */
"32 32 189 2",
"   c black",
".  c #0E0E0E",
"X  c #12100B",
"o  c #151515",
"O  c #1D1D1D",
"+  c #00062C",
"@  c #000B33",
"#  c #242425",
"$  c #2D2B2B",
"%  c #383535",
"&  c #3A3B3C",
"*  c #001043",
"=  c #001654",
"-  c #031A52",
";  c #001459",
":  c #021A58",
">  c #001466",
",  c #061B66",
"<  c #0A1E67",
"1  c #00176C",
"2  c #051E69",
"3  c #091D6B",
"4  c #001E79",
"5  c #032166",
"6  c #092266",
"7  c #04236B",
"8  c #0A226C",
"9  c #11256D",
"0  c #102E68",
"q  c #182A6C",
"w  c #19396E",
"e  c #0C2571",
"r  c #00217B",
"t  c #0A287E",
"y  c #152A79",
"u  c #06367A",
"i  c #173A75",
"p  c #454545",
"a  c #555353",
"s  c #585858",
"d  c #535762",
"f  c #636365",
"g  c #686765",
"h  c #65686B",
"j  c #6A6A6B",
"k  c #727578",
"l  c #7B7B7C",
"z  c #002481",
"x  c #032985",
"c  c #042A8C",
"v  c #092D8E",
"b  c #0F3580",
"n  c #123081",
"m  c #12378F",
"M  c #143893",
"N  c #153D9B",
"B  c #0E4087",
"V  c #0E4289",
"C  c #0F4B8D",
"Z  c #174C9A",
"A  c #1A4E9A",
"S  c #274086",
"D  c #374A82",
"F  c #234D93",
"G  c #3D5496",
"H  c #1A43A3",
"J  c #1B4DA3",
"K  c #1D58B8",
"L  c #2445A4",
"P  c #2252A3",
"I  c #2F55AF",
"U  c #2155B6",
"Y  c #275EB4",
"T  c #285EB9",
"R  c #355BB1",
"E  c #375AB9",
"W  c #2D61B5",
"Q  c #3C61BD",
"!  c #455486",
"~  c #596A9C",
"^  c #7B7D80",
"/  c #697692",
"(  c #67749F",
")  c #4E69A6",
"_  c #4469BA",
"`  c #5973B3",
"'  c #2664C4",
"]  c #3B64C0",
"[  c #3D6DC9",
"{  c #337CCE",
"}  c #4870CA",
"|  c #587CCF",
" . c #487DD7",
".. c #6E83B7",
"X. c #7C8EB3",
"o. c #6783C4",
"O. c #7892CC",
"+. c #5691E5",
"@. c #678FED",
"#. c #629AEC",
"$. c #6C96F2",
"%. c #6F9CF7",
"&. c #7A9EF1",
"*. c #73A2FA",
"=. c #808282",
"-. c #8A8B8C",
";. c #8F9295",
":. c #949495",
">. c #97979A",
",. c #97989A",
"<. c #9A9C9D",
"1. c #9D9FA2",
"2. c #959FBD",
"3. c #A2A2A4",
"4. c #A5A7AA",
"5. c #A7AAAC",
"6. c #AAA8A8",
"7. c #B0AFAF",
"8. c #A2A5B4",
"9. c #ACADB4",
"0. c #B2B4B4",
"q. c #B7BABC",
"w. c #8BA3DD",
"e. c #A2ADCE",
"r. c #BDBFC1",
"t. c #81AFFE",
"y. c #82B1FF",
"u. c #8DB6FF",
"i. c #87BAFF",
"p. c #92B0F5",
"a. c #90B7FF",
"s. c #91B8FF",
"d. c #9FBDFF",
"f. c #A0BFFF",
"g. c #BDC0C2",
"h. c #BCC2D7",
"j. c #9BC2FF",
"k. c #B4C7E0",
"l. c #A9C1F6",
"z. c #AECAF5",
"x. c #A5C3FF",
"c. c #A3CBFF",
"v. c #AACAFF",
"b. c #BBCDF7",
"n. c #B5CDFE",
"m. c #AFD0FF",
"M. c #BDD4FF",
"N. c #BBDCFF",
"B. c #C3C4C5",
"V. c #C5C7C8",
"C. c #C5C8CA",
"Z. c #C9CBCD",
"A. c #CDD1DD",
"S. c #D3D4D6",
"D. c #D4D5D8",
"F. c #D7D8DA",
"G. c #DCDDDE",
"H. c #C7CFE1",
"J. c #C8D4EE",
"K. c #DDDEE3",
"L. c #D2D7EA",
"P. c #D0D9ED",
"I. c #C2D2FF",
"U. c #C5DDFF",
"Y. c #D7DEF0",
"T. c #C5E3FF",
"R. c #CCE3FF",
"E. c #CDEDFF",
"W. c #D3E6FF",
"Q. c #D2ECFF",
"!. c #DAECFF",
"~. c #D1F3FF",
"^. c #DFF1FF",
"/. c #D7F9FF",
"(. c #DCFDFF",
"). c #E2E5EC",
"_. c #E7E9EA",
"`. c #EAEBEC",
"'. c #E4E9F5",
"]. c #EAEDF5",
"[. c #EAEFF9",
"{. c #E5F4FF",
"}. c #E4FFFF",
"|. c #ECFEFF",
" X c #F2F3F4",
".X c #F2F4FB",
"XX c #F4FFFF",
"oX c #FEFFFF",
"OX c None",
/* pixels */
"OXOXOXOXOXOXOXOXOXOXOXOXOXOXOXOXOXOXOXOXOXOXOXOXOXOXOXOXOXOXOXOX",
"OXOXOXOXOXOXOXOXOX<.,.>.<.OXOXOXOXOXOXOXOXOXOXOXOXOXOXOXOXOXOXOX",
"OXOXOXOXOXOXOX3.a         $ -.:.OXOXOXOXOXOXOXOXOXOXOXOXOXOXOXOX",
"OXOXOXOXOX4.s OXOXOXOXOXOXOXOXX 3.OXOXOXOXOXOXOXOXOXOXOXOXOXOXOX",
"OXOXOXOX4.O OXOXoXoXoXOXOXOXOXOX  :.OXOXOXOXOXOXOXOXOXOXOXOXOXOX",
"OXOXOX-.% OXK.oXoXoXOXOXOXOXOXOXOX  <.OXOXOXOXOXOXOXOXOXOXOXOXOX",
"OXOXOX:.OX'.oXoXoXOXOXOXOXOXOXOXOXOXp ^ OXOXOXOXOXOXOXOXOXOXOXOX",
"OXOXp d OXOXoXoXoXOXOXOXOXOXOXOXOXOXOX-.OXOXOXOXOXOXOXOXOXOXOXOX",
"OXOXl OXoXOXOXoXoXOXOXOXOXOXOXOXOXOXOX-.OXOXOXOXOXOXOXOXOXOXOXOX",
"OXOX:.OXoXoXOXOXoXOXOXOXOXOXOXOXOXOXOX8.OXOXOXOXOXOXOXOXOXOXOXOX",
"OXOX4.OXoXoXoXOXOXOXOXOXOXOXOXOXOXOXOXh.j OXOXOXOXOXOXOXOXOXOXOX",
"OXOX9.n.oXoXoXoXoXOXOXOXOXOXOXOXOXOXOXL.f OXOXOXOXOXOXOXOXOXOXOX",
"OXOX<.I.oXoXoXoXXXXXXXXXXXXXXX}./.N.n.K.OXOXOXOXOXOXOXOXOXOXOXOX",
"OXOXa !.W.oXXXXXXXXXXXXXXXXX|.(.E.v.W.B.OXOXOXOXOXOXOXOXOXOXOXOX",
"OXOXOX).U.!.}.}.|.|.|.|.|.|.}.~.N.x.oXl OXOXOXOXOXOXOXOXOXOXOXOX",
"OXOXOXg oXn.T.~./.}.}.}.}.(.~.N.d.|.B.OXOXOXOXOXOXOXOXOXOXOXOXOX",
"OXOXOXOX7.oXv.v.N.E.~.~.E.T.m.f.{. X& OXOXOXOXOXOXOXOXOXOXOXOXOX",
"OXOXOXOXOX6.oXR.x.x.v.v.x.x.M.oXG.4.Z.`.OXOXOXOXOXOXOXOXOXOXOXOX",
"OXOXOXOX5 : < 9 D X.k.^.|.oXoX:.OXOXD.;.`.OXOXOXOXOXOXOXOXOXOXOX",
"OXOXOX3 ` z.W.W.z.` q / :.a   OXOXOX=.1.h F.oXOXOXOXOXOXOXOXOXOX",
"OXOXy c.Q.R.U.U.R.Q.c.y - OXOXOXOXOXOX<.;.k Z.oXOXOXOXOXOXOXOXOX",
"OX3 i.j.a.s.s.s.a.u.j.y.3 OXOXOXOXOXOXOX0.:.-.B.oXOXOXOXOXOXOXOX",
"5 _ *.@.l.p.$.$.$.&.b.%.Q 5 OXOXOXOXOXOX. r.<.4.V.oXOXOXOXOXOXOX",
",  .] J.oXw.} | w.[..XQ [ , OXOXOXOXOXOXOXO V.5.r.S.oXOXOXOXOXOX",
"8 T N I P.O.R Y._ o.[.H U 6 OXOXOXOXOXOXOXOX# V.q.D.G.oXOXOXOXOX",
"e w @ 5 H...m M m ) ].- 0 6 OXOXOXOXOXOXOXOXOX# B.C.`._. XOXOXOX",
"8 F + * A.( 2 ~ 8 !  X+ i 8 OXOXOXOXOXOXOXOXOXOX# B.D.oX X`.OXOX",
"5 W : ; X.G t e.n S 2.= P 5 OXOXOXOXOXOXOXOXOXOXOXO g.K.oXoX,.OX",
"OXb Y > 4 z x x z r 1 J b OXOXOXOXOXOXOXOXOXOXOXOXOXo q. X-.OXOX",
"OXOXA ' c M E Q L v K Z OXOXOXOXOXOXOXOXOXOXOXOXOXOXOX. & OXOXOX",
"OXOXOXB { +.t.u.#.{ V OXOXOXOXOXOXOXOXOXOXOXOXOXOXOXOXOXOXOXOXOX",
"OXOXOXOX5 u C C u 7 OXOXOXOXOXOXOXOXOXOXOXOXOXOXOXOXOXOXOXOXOXOX"
};
